<svg width="13" height="12" viewBox="0 0 13 12" fill="none" xmlns="http://www.w3.org/2000/svg">
<path d="M5.62393 9.77202C5.66964 9.83842 5.73081 9.89271 5.80217 9.93021C5.87353 9.96771 5.95293 9.98731 6.03355 9.98731C6.11416 9.98731 6.19357 9.96771 6.26492 9.93021C6.33628 9.89271 6.39745 9.83842 6.44317 9.77202L10.9281 3.29383C10.98 3.21911 11.0104 3.13159 11.0161 3.04079C11.0218 2.94998 11.0024 2.85935 10.9602 2.77876C10.918 2.69817 10.8545 2.63069 10.7766 2.58365C10.6987 2.53661 10.6094 2.51182 10.5184 2.51196H1.54865C1.45788 2.51234 1.36892 2.53745 1.29135 2.5846C1.21379 2.63175 1.15054 2.69915 1.10841 2.77956C1.06629 2.85997 1.04688 2.95034 1.05227 3.04095C1.05767 3.13156 1.08766 3.21899 1.13903 3.29383L5.62393 9.77202Z" fill="#FA9D02"/>
</svg>
