<svg width="10" height="10" viewBox="0 0 10 10" fill="none" xmlns="http://www.w3.org/2000/svg">
<path d="M1.03879 0.169508C0.924907 0.0595116 0.772374 -0.00135299 0.614046 2.28271e-05C0.455719 0.00139865 0.304266 0.064905 0.192308 0.176864C0.0803491 0.288822 0.0168427 0.440275 0.0154669 0.598602C0.0140911 0.756929 0.0749557 0.909463 0.184952 1.02335L3.67218 4.51058L0.184348 7.99781C0.126674 8.05351 0.0806715 8.12014 0.0490243 8.19382C0.0173772 8.26749 0.000719531 8.34672 2.27996e-05 8.4269C-0.000673931 8.50708 0.0146044 8.5866 0.0449664 8.66081C0.0753285 8.73502 0.120166 8.80244 0.176863 8.85914C0.23356 8.91583 0.300981 8.96067 0.375192 8.99103C0.449403 9.02139 0.528917 9.03667 0.609096 9.03598C0.689275 9.03528 0.768512 9.01862 0.842184 8.98697C0.915856 8.95533 0.982487 8.90932 1.03819 8.85165L4.52602 5.36442L8.01325 8.85165C8.12714 8.96165 8.27967 9.02251 8.438 9.02114C8.59633 9.01976 8.74778 8.95625 8.85974 8.8443C8.9717 8.73234 9.0352 8.58088 9.03658 8.42256C9.03796 8.26423 8.97709 8.1117 8.86709 7.99781L5.37987 4.51058L8.86709 1.02335C8.97709 0.909463 9.03796 0.756929 9.03658 0.598602C9.0352 0.440275 8.9717 0.288822 8.85974 0.176864C8.74778 0.064905 8.59633 0.00139865 8.438 2.28271e-05C8.27967 -0.00135299 8.12714 0.0595116 8.01325 0.169508L4.52602 3.65674L1.03879 0.168904V0.169508Z" fill="#E43154"/>
</svg>
