<svg width="20" height="20" viewBox="0 0 20 20" fill="none" xmlns="http://www.w3.org/2000/svg">
<path d="M12.9187 6.575L13.4375 7.09375C14.3515 8.00781 15.8468 8.00781 16.7609 7.09375L18.7 5.15469C19.614 4.24063 19.614 2.74531 18.7 1.83125L18.1812 1.3125C17.2671 0.398437 15.7718 0.398437 14.8578 1.3125L12.9187 3.25C12.0046 4.16406 12.0046 5.66094 12.9187 6.575ZM14.5703 5.16719C14.0843 4.68125 14.089 3.87969 14.5812 3.3875L15.6265 2.34219C16.1187 1.85 16.9203 1.84531 17.4062 2.33125L17.6828 2.60781C18.1687 3.09375 18.164 3.89531 17.6718 4.3875L16.6265 5.43281C16.1343 5.925 15.3328 5.92969 14.8468 5.44375L14.5703 5.16719Z" fill="#2B2B2B"/>
<path d="M3.25779 12.9125L1.31873 14.8516C0.404663 15.7656 0.404663 17.2609 1.31873 18.175L1.83748 18.6938C2.75154 19.6078 4.24685 19.6078 5.16091 18.6938L7.09998 16.7547C8.01404 15.8406 8.01404 14.3453 7.09998 13.4313L6.58123 12.9125C5.66716 11.9984 4.17185 11.9984 3.25779 12.9125ZM5.44998 14.8391C5.93591 15.325 5.93123 16.1266 5.43904 16.6188L4.39373 17.6641C3.90154 18.1563 3.09998 18.1609 2.61404 17.675L2.33748 17.3984C1.85154 16.9125 1.85623 16.1109 2.34841 15.6188L3.39373 14.5734C3.88591 14.0813 4.68748 14.0766 5.17341 14.5625L5.44998 14.8391Z" fill="#2B2B2B"/>
<path d="M10.0094 19.3391C15.1655 19.3391 19.3453 15.1592 19.3453 10.0031C19.3453 4.84705 15.1655 0.667206 10.0094 0.667206C4.8533 0.667206 0.673462 4.84705 0.673462 10.0031C0.673462 15.1592 4.8533 19.3391 10.0094 19.3391Z" fill="url(#paint0_radial)"/>
<path opacity="0.2" d="M16.5203 0.939056C17.0671 0.939056 17.5781 1.14999 17.9609 1.53281L18.4796 2.05156C19.275 2.84687 19.275 4.13906 18.4796 4.93281L18.025 5.38749C17.9281 5.48437 17.9062 5.63437 17.9703 5.75624C18.664 7.05468 19.0312 8.52343 19.0312 10.0031C19.0312 14.9781 14.9828 19.0266 10.0078 19.0266C8.52808 19.0266 7.05933 18.6594 5.76089 17.9656C5.71401 17.9406 5.66401 17.9281 5.61401 17.9281C5.53276 17.9281 5.45308 17.9594 5.3937 18.0203L4.93901 18.475C4.5562 18.8578 4.0437 19.0687 3.49839 19.0687C2.95308 19.0687 2.44058 18.8578 2.05776 18.475L1.53901 17.9562C0.743701 17.1609 0.743701 15.8687 1.53901 15.075L1.9937 14.6203C2.09058 14.5234 2.11245 14.3734 2.04839 14.2516C1.35464 12.9531 0.987451 11.4844 0.987451 10.0047C0.987451 5.02968 5.03589 0.981244 10.0109 0.981244C11.4906 0.981244 12.9593 1.34843 14.2578 2.04218C14.3046 2.06718 14.3546 2.07968 14.4046 2.07968C14.4859 2.07968 14.5656 2.04843 14.625 1.98749L15.0796 1.53281C15.4625 1.14999 15.9734 0.939056 16.5203 0.939056ZM17.5531 4.81874C17.6359 4.81874 17.7156 4.78593 17.7734 4.72656L17.8906 4.60937C18.1875 4.31249 18.3515 3.91718 18.3546 3.49843C18.3578 3.07656 18.1968 2.68281 17.9015 2.38749L17.625 2.11093C17.3328 1.81874 16.9406 1.65781 16.5234 1.65781C16.1 1.65781 15.7015 1.82187 15.4031 2.12187L15.2859 2.23906C15.2218 2.30312 15.189 2.39374 15.1953 2.48437C15.2031 2.57499 15.2484 2.65937 15.3218 2.71249C16.0812 3.26562 16.7468 3.93124 17.3 4.69062C17.3531 4.76406 17.4375 4.81093 17.5281 4.81718C17.5375 4.81718 17.5453 4.81874 17.5531 4.81874ZM3.49526 18.35C3.9187 18.35 4.31714 18.1859 4.61558 17.8859L4.73276 17.7687C4.79683 17.7047 4.82964 17.6141 4.82339 17.5234C4.81558 17.4328 4.77026 17.3484 4.69683 17.2953C3.93745 16.7422 3.27183 16.0766 2.7187 15.3172C2.69219 15.2807 2.65804 15.2505 2.61863 15.2287C2.57923 15.2068 2.53552 15.1938 2.49058 15.1906C2.48276 15.1906 2.47495 15.1891 2.46714 15.1891C2.38433 15.1891 2.30464 15.2219 2.24683 15.2812L2.12964 15.3984C1.83276 15.6953 1.6687 16.0906 1.66558 16.5094C1.66245 16.9312 1.82339 17.325 2.1187 17.6203L2.39526 17.8969C2.68589 18.1891 3.07651 18.35 3.49526 18.35ZM16.5203 0.626556C15.9171 0.626556 15.3156 0.854681 14.8578 1.31249L14.4031 1.76718C13.0519 1.04301 11.5423 0.665072 10.0093 0.667181C4.85308 0.667181 0.673389 4.84687 0.673389 10.0031C0.673389 11.5922 1.07183 13.0875 1.77183 14.3969L1.31714 14.8516C0.403076 15.7656 0.403076 17.2609 1.31714 18.175L1.83589 18.6937C2.29214 19.15 2.89526 19.3797 3.49839 19.3797C4.10151 19.3797 4.70308 19.1516 5.16089 18.6937L5.61558 18.2391C6.96714 18.962 8.47656 19.3394 10.0093 19.3375C15.1656 19.3375 19.3453 15.1578 19.3453 10.0016C19.3453 8.41249 18.9468 6.91718 18.2468 5.60781L18.7015 5.15312C19.6156 4.23906 19.6156 2.74374 18.7015 1.82968L18.1828 1.31093C17.725 0.854681 17.1218 0.626556 16.5203 0.626556ZM17.5531 4.50624C16.9808 3.7222 16.2902 3.03169 15.5062 2.45937L15.6234 2.34218C15.7415 2.22401 15.8819 2.13032 16.0363 2.06651C16.1908 2.00269 16.3563 1.97 16.5234 1.97031C16.8437 1.97031 17.1625 2.09062 17.4046 2.33281L17.6812 2.60937C18.1671 3.09531 18.1625 3.89687 17.6703 4.38906L17.5531 4.50624ZM3.49526 18.0375C3.17495 18.0375 2.8562 17.9172 2.61401 17.675L2.33745 17.3984C1.85151 16.9125 1.8562 16.1109 2.34839 15.6187L2.46558 15.5016C3.03745 16.2859 3.72808 16.9766 4.51245 17.5484L4.39526 17.6656C4.15622 17.9037 3.83263 18.0374 3.49526 18.0375Z" fill="#EEEEEE"/>
<path d="M18.5562 9.99999C18.5562 10.0703 18.5422 10.1437 18.5406 10.2125C18.539 10.2828 18.314 10.3453 18.3093 10.4141C18.3062 10.4844 18.4515 10.5625 18.4468 10.6328C18.4422 10.7031 18.425 10.7734 18.4187 10.8422C18.4125 10.9125 18.5125 10.9953 18.5031 11.0656C18.4937 11.1359 18.275 11.1766 18.2656 11.2469C18.2547 11.3156 18.2187 11.3797 18.2062 11.4484C18.1937 11.5172 18.1406 11.5766 18.1265 11.6437C18.1125 11.7125 18.1531 11.7906 18.1375 11.8578C18.1218 11.9266 18.1922 12.0141 18.175 12.0828C18.1578 12.15 18.0453 12.1922 18.0265 12.2594C18.0078 12.3266 17.9797 12.3891 17.9594 12.4562C17.939 12.5234 18.1031 12.65 18.0812 12.7156C18.0593 12.7812 18.014 12.8437 17.9906 12.9094C17.9672 12.975 17.7562 12.9703 17.7312 13.0359C17.7062 13.1016 17.9047 13.2578 17.8765 13.3219C17.85 13.3859 17.739 13.4172 17.7093 13.4797C17.6812 13.5437 17.7109 13.6375 17.6812 13.7C17.6515 13.7625 17.489 13.7625 17.4578 13.825C17.4265 13.8875 17.4093 13.9562 17.375 14.0187C17.3422 14.0797 17.3297 14.1547 17.2953 14.2141C17.2609 14.275 17.2031 14.3219 17.1656 14.3812C17.1297 14.4406 17.0297 14.4594 16.9906 14.5172C16.9531 14.5766 17.1172 14.7703 17.0765 14.8281C17.0375 14.8859 16.8937 14.8734 16.8531 14.9312C16.8125 14.9875 16.7656 15.0422 16.7234 15.0969C16.6812 15.1531 16.6422 15.2109 16.5984 15.2656C16.5547 15.3203 16.4453 15.3203 16.4 15.3734C16.3547 15.4266 16.4609 15.6109 16.414 15.6641C16.3672 15.7172 16.3047 15.7594 16.2578 15.8094C16.2109 15.8609 16.0547 15.8109 16.0062 15.8609C15.9578 15.9109 15.9265 15.9797 15.8765 16.0281C15.8265 16.0766 15.7531 16.1016 15.7031 16.1484C15.6515 16.1953 15.5625 16.1984 15.5093 16.2453C15.4562 16.2922 15.375 16.3 15.3218 16.3437C15.2687 16.3891 15.3031 16.5406 15.2484 16.5844C15.1937 16.6281 15.075 16.5875 15.0187 16.6297C14.9625 16.6719 15.0578 16.9187 15.0015 16.9594C14.9453 17 14.8812 17.0391 14.8234 17.0781C14.7656 17.1172 14.639 17.0578 14.5812 17.0953C14.5218 17.1328 14.5265 17.2766 14.4672 17.3125C14.4078 17.3484 14.2359 17.2 14.175 17.2359C14.114 17.2703 14.1484 17.475 14.0859 17.5094C14.025 17.5422 13.8922 17.4469 13.8312 17.4781C13.7687 17.5094 13.7687 17.6687 13.7047 17.6984C13.6422 17.7281 13.4875 17.5641 13.4234 17.5937C13.3594 17.6219 13.3156 17.6906 13.25 17.7172C13.1859 17.7437 13.0875 17.6844 13.0234 17.7094C12.9578 17.7344 12.9922 18.0203 12.9265 18.0453C12.8609 18.0687 12.7906 18.0922 12.725 18.1141C12.6594 18.1359 12.5328 17.9781 12.4656 18C12.3984 18.0203 12.3828 18.2187 12.3156 18.2375C12.2484 18.2562 12.1172 18.0391 12.05 18.0562C11.9828 18.0734 11.95 18.2312 11.8812 18.2469C11.8125 18.2625 11.7515 18.3141 11.6828 18.3281C11.614 18.3422 11.5562 18.425 11.4875 18.4375C11.4187 18.45 11.3422 18.4312 11.2718 18.4422C11.2031 18.4531 11.1062 18.2609 11.0359 18.2703C10.9672 18.2781 10.8937 18.225 10.8234 18.2328C10.7547 18.2391 10.6984 18.3891 10.6281 18.3953C10.5578 18.4 10.4828 18.2781 10.4125 18.2812C10.3422 18.2844 10.2781 18.3984 10.2078 18.4C10.1375 18.4016 10.0687 18.3937 9.99841 18.3937C9.9281 18.3937 9.85623 18.4891 9.78747 18.4875C9.71716 18.4859 9.64685 18.4516 9.5781 18.4484C9.50779 18.4453 9.45154 18.2484 9.38123 18.2422C9.31091 18.2375 9.22498 18.4375 9.15622 18.4312C9.08591 18.425 9.03123 18.2922 8.96248 18.2828C8.89216 18.2734 8.79841 18.4422 8.72966 18.4328C8.66091 18.4219 8.62029 18.2297 8.55154 18.2172C8.48279 18.2047 8.41248 18.2109 8.34373 18.1969C8.27498 18.1828 8.17497 18.3141 8.10623 18.2984C8.03747 18.2828 7.96404 18.2766 7.89685 18.2594C7.82966 18.2422 7.78904 18.1172 7.72185 18.0984C7.65466 18.0797 7.5781 18.0875 7.51248 18.0672C7.44529 18.0469 7.37654 18.0297 7.31091 18.0062C7.24529 17.9844 7.17341 17.9719 7.10779 17.9484C7.04216 17.925 6.95154 17.9594 6.88748 17.9344C6.82185 17.9094 6.7656 17.8562 6.70154 17.8297C6.63748 17.8031 6.65622 17.5875 6.59216 17.5578C6.5281 17.5297 6.41248 17.6156 6.34998 17.5859C6.28748 17.5562 6.25154 17.4719 6.18904 17.4406C6.12654 17.4094 6.04841 17.4094 5.98747 17.375C5.92654 17.3422 5.91091 17.2281 5.84998 17.1937C5.78904 17.1594 5.61404 17.3156 5.55466 17.2797C5.49529 17.2437 5.47185 17.1437 5.41404 17.1062C5.35466 17.0687 5.37029 16.9203 5.31248 16.8797C5.25466 16.8406 5.05935 16.9969 5.00154 16.9547C4.94529 16.9141 4.93123 16.8094 4.87498 16.7672C4.81873 16.725 4.82029 16.6078 4.7656 16.5641C4.71091 16.5203 4.7031 16.4219 4.64998 16.3766C4.59685 16.3312 4.42654 16.4219 4.37498 16.375C4.32185 16.3281 4.33591 16.2078 4.28435 16.1609C4.23279 16.1141 4.10623 16.1437 4.05623 16.0953C4.00623 16.0469 4.07185 15.8812 4.02185 15.8312C3.97341 15.7812 3.8031 15.8453 3.75623 15.7937C3.70935 15.7422 3.72341 15.6328 3.6781 15.5797C3.63123 15.5266 3.62498 15.4406 3.57966 15.3875C3.53435 15.3344 3.55935 15.225 3.5156 15.1703C3.47185 15.1156 3.22654 15.2187 3.18435 15.1625C3.14216 15.1062 3.26873 14.925 3.2281 14.8687C3.18748 14.8125 3.21248 14.7125 3.17341 14.6547C3.13435 14.5969 2.88904 14.6766 2.84998 14.6187C2.81248 14.5594 2.90154 14.4203 2.8656 14.3609C2.82966 14.3016 2.63591 14.3344 2.59998 14.2734C2.5656 14.2125 2.67029 14.0719 2.63748 14.0109C2.60466 13.95 2.47341 13.9391 2.4406 13.8766C2.40935 13.8141 2.39998 13.7391 2.36873 13.6766C2.33904 13.6141 2.34841 13.5312 2.32029 13.4672C2.29216 13.4031 2.23435 13.3516 2.20779 13.2875C2.18123 13.2234 2.06716 13.1906 2.04216 13.1266C2.01716 13.0609 2.17654 12.925 2.15154 12.8594C2.1281 12.7937 1.96873 12.775 1.94529 12.7094C1.92341 12.6437 1.83904 12.5937 1.81873 12.5266C1.79841 12.4594 1.95154 12.3406 1.93279 12.2734C1.91404 12.2062 1.89998 12.1391 1.88279 12.0703C1.8656 12.0031 1.76873 11.9531 1.7531 11.8859C1.73748 11.8172 1.67498 11.7578 1.66248 11.6891C1.64841 11.6203 1.72185 11.5344 1.71091 11.4656C1.69841 11.3969 1.78904 11.3125 1.77966 11.2437C1.76873 11.175 1.73279 11.1109 1.72341 11.0422C1.7156 10.9734 1.73279 10.9031 1.72654 10.8328C1.71873 10.7594 1.6781 10.6937 1.67185 10.625C1.66716 10.5547 1.74373 10.4828 1.7406 10.4125C1.73748 10.3422 1.47966 10.2828 1.4781 10.2125C1.47654 10.1422 1.44373 10.0703 1.44373 9.99999C1.44373 9.92968 1.5656 9.85937 1.56716 9.78905C1.56873 9.71874 1.6906 9.65468 1.69373 9.58437C1.69685 9.51405 1.69373 9.44687 1.69841 9.37655C1.7031 9.30624 1.58591 9.22655 1.59216 9.1578C1.59841 9.08749 1.70779 9.02968 1.7156 8.96093C1.72498 8.89062 1.7656 8.82812 1.77498 8.75937C1.78591 8.69062 1.77966 8.6203 1.79216 8.55155C1.80466 8.4828 1.86091 8.42499 1.87498 8.35624C1.88904 8.28749 1.68748 8.17343 1.70154 8.10468C1.71716 8.03593 1.67654 7.95155 1.69373 7.88437C1.71091 7.81718 1.91091 7.79687 1.92966 7.72812C1.94841 7.66093 1.8531 7.55937 1.87341 7.49218C1.89373 7.42499 2.05154 7.40155 2.07341 7.33593C2.09529 7.2703 2.08435 7.19218 2.10935 7.12655C2.13279 7.06093 2.08435 6.96718 2.11091 6.90155C2.13591 6.83593 2.20779 6.78905 2.23435 6.72499C2.26091 6.66093 2.35154 6.62343 2.37966 6.56093C2.40779 6.49687 2.48904 6.45937 2.51873 6.39687C2.54841 6.33437 2.54216 6.25468 2.57498 6.19218C2.60623 6.12968 2.61404 6.05624 2.64841 5.9953C2.68123 5.93437 2.73904 5.88749 2.77341 5.82655C2.80779 5.76562 2.73748 5.64374 2.77498 5.5828C2.81091 5.52343 3.0031 5.56249 3.0406 5.50312C3.0781 5.44374 3.03123 5.33124 3.07029 5.27343C3.10935 5.21562 3.14841 5.1578 3.18904 5.10155C3.22966 5.0453 3.12966 4.8828 3.17341 4.82655C3.2156 4.7703 3.33591 4.77343 3.37966 4.71874C3.42341 4.66405 3.40935 4.55937 3.45466 4.50624C3.49998 4.45312 3.57185 4.41874 3.61873 4.36718C3.6656 4.31405 3.70779 4.25624 3.75623 4.20468C3.8031 4.15312 3.90466 4.14999 3.9531 4.09999C4.00154 4.04999 4.01716 3.96405 4.06716 3.91562C4.11716 3.86718 4.21248 3.86405 4.26404 3.81718C4.3156 3.7703 4.41091 3.77187 4.46404 3.72655C4.51716 3.67968 4.50779 3.56249 4.56091 3.51718C4.61404 3.47187 4.73435 3.5078 4.78904 3.46405C4.84373 3.4203 4.88435 3.36093 4.93904 3.31874C4.99529 3.27655 5.05466 3.24218 5.11248 3.20155C5.16873 3.16093 5.27029 3.18749 5.3281 3.14687C5.38591 3.1078 5.42185 3.03905 5.47966 3.00155C5.53904 2.96405 5.56248 2.87499 5.62341 2.83749C5.68279 2.80155 5.69373 2.68124 5.75466 2.64687C5.8156 2.61249 5.92185 2.6578 5.98279 2.62343C6.04373 2.59062 6.06248 2.47499 6.12498 2.44218C6.18748 2.41093 6.29841 2.47499 6.36091 2.44374C6.42341 2.41405 6.50622 2.42812 6.57029 2.39999C6.63435 2.37187 6.64373 2.21874 6.70779 2.19218C6.77185 2.16562 6.87341 2.22655 6.93904 2.20155C7.00466 2.17655 7.09685 2.22812 7.16247 2.20468C7.2281 2.18124 7.27966 2.12655 7.34685 2.10312C7.41247 2.08124 7.44373 1.94999 7.51091 1.92968C7.5781 1.90937 7.66716 1.96718 7.73435 1.94843C7.80154 1.92968 7.86248 1.89062 7.92966 1.87343C7.99685 1.85624 8.04529 1.7578 8.11404 1.74218C8.18279 1.72655 8.27498 1.82968 8.34373 1.81562C8.41248 1.80155 8.45935 1.67499 8.5281 1.66249C8.59685 1.64999 8.6781 1.71093 8.74685 1.70155C8.8156 1.69062 8.86716 1.53749 8.93591 1.52812C9.00466 1.5203 9.10154 1.74843 9.17029 1.74218C9.23904 1.73593 9.29997 1.63124 9.36872 1.62655C9.43904 1.62187 9.50623 1.59687 9.57654 1.59374C9.64685 1.59062 9.71716 1.63437 9.78747 1.63124C9.85779 1.62968 9.92654 1.56249 9.99685 1.56249C10.0672 1.56249 10.1328 1.73593 10.2031 1.73749C10.2734 1.73905 10.3437 1.63749 10.414 1.64218C10.4844 1.6453 10.5672 1.44843 10.6375 1.45312C10.7078 1.4578 10.7797 1.47812 10.8484 1.48437C10.9187 1.49062 10.9765 1.61874 11.0453 1.62812C11.1156 1.63749 11.2 1.54687 11.2687 1.55624C11.3375 1.56718 11.3875 1.70937 11.4562 1.7203C11.525 1.7328 11.6109 1.65937 11.6797 1.67343C11.7484 1.68749 11.7703 1.91249 11.839 1.92812C11.9078 1.94374 12.014 1.79687 12.0812 1.81405C12.1484 1.83124 12.225 1.82343 12.2922 1.84218C12.3593 1.86093 12.3937 1.99374 12.4593 2.01405C12.5265 2.03437 12.6437 1.89843 12.7109 1.9203C12.7781 1.94218 12.8015 2.08905 12.8672 2.11249C12.9328 2.13593 12.9672 2.24062 13.0312 2.26562C13.0969 2.29062 13.2203 2.17187 13.2843 2.19843C13.3484 2.22499 13.4453 2.1828 13.5093 2.21249C13.5734 2.24062 13.5578 2.44062 13.6219 2.4703C13.6844 2.49999 13.7515 2.52187 13.814 2.55312C13.8765 2.58437 13.9375 2.61718 13.9984 2.64999C14.0593 2.6828 14.0906 2.76562 14.1515 2.80155C14.2125 2.83593 14.3094 2.8078 14.3687 2.84374C14.4281 2.87968 14.5422 2.83124 14.6015 2.86874C14.6609 2.90624 14.75 2.90312 14.8078 2.94218C14.8656 2.98124 14.8781 3.08905 14.9344 3.12968C14.9906 3.1703 15.089 3.1578 15.1453 3.20155C15.2015 3.24374 15.2109 3.34843 15.2656 3.39218C15.3203 3.43593 15.4297 3.41562 15.4828 3.46093C15.5359 3.50624 15.4125 3.75624 15.464 3.80312C15.5172 3.84999 15.6593 3.79374 15.7093 3.84062C15.7609 3.88749 15.8203 3.92655 15.8703 3.97655C15.9203 4.02499 15.8922 4.14999 15.9406 4.19999C15.989 4.24999 16.0968 4.24218 16.1437 4.29374C16.1906 4.3453 16.3328 4.31249 16.3781 4.36562C16.425 4.41874 16.5156 4.43593 16.5594 4.49062C16.6047 4.54374 16.4672 4.74843 16.5109 4.80312C16.5547 4.8578 16.7422 4.80155 16.7843 4.85624C16.8265 4.91249 16.7969 5.02187 16.8375 5.07968C16.8781 5.13593 16.8172 5.26249 16.8562 5.3203C16.8953 5.37812 17.039 5.36562 17.0765 5.42343C17.114 5.4828 17.0375 5.61249 17.0734 5.67187C17.1093 5.73124 17.3812 5.65155 17.4156 5.71249C17.45 5.77343 17.2359 5.97499 17.2687 6.03593C17.3015 6.09687 17.3687 6.13749 17.4015 6.19999C17.4328 6.26249 17.6828 6.21718 17.7125 6.27968C17.7422 6.34218 17.5125 6.52812 17.5406 6.59218C17.5687 6.65624 17.8156 6.62343 17.8422 6.68905C17.8687 6.75312 17.7297 6.88593 17.7547 6.95155C17.7797 7.01718 17.95 7.02655 17.975 7.09218C17.9984 7.1578 17.9922 7.23593 18.014 7.30312C18.0359 7.36874 17.9875 7.45937 18.0078 7.52499C18.0281 7.59218 17.9672 7.68124 17.9859 7.74843C18.0047 7.81562 18.1312 7.85312 18.1484 7.9203C18.1656 7.98749 18.0734 8.08124 18.089 8.14843C18.1047 8.21718 18.3187 8.24218 18.3328 8.31093C18.3468 8.37968 18.1343 8.48905 18.1468 8.55937C18.1593 8.62812 18.2531 8.68124 18.264 8.74999C18.275 8.81874 18.4203 8.8703 18.4297 8.93905C18.4375 9.0078 18.5078 9.07343 18.5156 9.14374C18.5218 9.21249 18.2828 9.30468 18.2875 9.37499C18.2922 9.4453 18.3203 9.51093 18.3234 9.58124C18.3265 9.65155 18.5515 9.71405 18.5547 9.78437C18.5593 9.85624 18.5562 9.92968 18.5562 9.99999Z" fill="url(#paint1_radial)"/>
<path d="M3.22661 9.08435C3.22661 9.08435 5.69693 10.9812 5.7313 11.0937C5.76568 11.2062 4.49693 12.3922 3.27349 11.2953C2.21724 10.3515 3.12349 9.10935 3.22661 9.08435Z" fill="#FCDA00"/>
<path d="M3.26098 9.14532C3.26098 9.14532 5.65004 10.9406 5.68441 11.0453C5.71879 11.15 4.5391 12.211 3.35316 11.1781C2.33129 10.2875 3.1641 9.16564 3.26098 9.14532Z" fill="#FFF59D"/>
<path d="M4.03275 10.1141L3.12181 10.1734C3.10518 10.1745 3.08849 10.1723 3.07271 10.167C3.05693 10.1616 3.04237 10.1531 3.02988 10.1421C3.01739 10.131 3.0072 10.1176 2.99992 10.1026C2.99263 10.0876 2.98839 10.0713 2.98744 10.0547C2.97963 9.9422 2.98588 9.77501 3.05931 9.62813C3.11713 9.51407 3.17181 9.43126 3.21556 9.37345C3.25775 9.3172 3.33744 9.30782 3.39213 9.35001L4.1015 9.88751C4.19369 9.95782 4.14994 10.1063 4.03275 10.1141Z" fill="url(#paint2_linear)"/>
<path d="M3.57509 11.1359C3.57509 11.1359 3.38446 11.0469 3.2204 10.8219C3.12353 10.689 3.10009 10.5406 3.09696 10.4422C3.0954 10.3781 3.13915 10.3234 3.20165 10.3125L4.10321 10.1562C4.21884 10.1359 4.29696 10.2703 4.22353 10.3609L3.59384 11.139L3.57509 11.1359Z" fill="url(#paint3_linear)"/>
<path d="M3.75476 11.3375C3.85163 11.425 4.04695 11.5406 4.39851 11.4969C4.46257 11.4891 4.51101 11.4313 4.50788 11.3656L4.47038 10.5938C4.46413 10.4766 4.31726 10.4297 4.24538 10.5219L3.7407 11.1656C3.70007 11.2188 3.70476 11.2938 3.75476 11.3375Z" fill="url(#paint4_linear)"/>
<path d="M4.53603 10.6188L4.62666 11.3313C4.63759 11.4125 4.71416 11.4672 4.79384 11.4469C4.94384 11.4109 5.18759 11.3281 5.42353 11.1453C5.49541 11.0906 5.49697 10.9828 5.4251 10.9266L4.81572 10.4563C4.69228 10.3641 4.51572 10.4641 4.53603 10.6188Z" fill="url(#paint5_linear)"/>
<path d="M13.5421 14.2937C13.5421 14.2937 15.0624 10.7453 15.1874 10.6703C15.3124 10.5953 17.1249 11.7531 16.1843 13.5594C15.3734 15.1156 13.6046 14.4094 13.5421 14.2937Z" fill="#FCDA00"/>
<path d="M13.6063 14.2312C13.6063 14.2312 15.0298 10.8125 15.1438 10.7391C15.2594 10.6656 16.8954 11.7562 16.0173 13.4984C15.2626 14.9984 13.661 14.3422 13.6063 14.2312Z" fill="#FFF59D"/>
<path d="M14.5328 13.0094L14.8843 14.0859C14.9109 14.1687 14.8656 14.2562 14.7828 14.2844C14.65 14.3281 14.4468 14.3719 14.2484 14.3281C14.0937 14.2937 13.9765 14.2531 13.8953 14.2187C13.8763 14.2109 13.8591 14.1993 13.8446 14.1847C13.8301 14.1701 13.8187 14.1528 13.811 14.1338C13.8033 14.1147 13.7994 14.0943 13.7997 14.0738C13.8 14.0532 13.8043 14.0329 13.8125 14.0141L14.239 12.9984C14.2953 12.8641 14.4875 12.8719 14.5328 13.0094Z" fill="url(#paint6_linear)"/>
<path d="M15.8985 13.2437C15.8985 13.2437 15.85 13.4984 15.6297 13.7656C15.5 13.9234 15.3297 13.9969 15.2125 14.0297C15.136 14.0515 15.0563 14.0156 15.025 13.9437L14.561 12.9094C14.5016 12.7765 14.6391 12.6406 14.7704 12.7015L15.8969 13.2219L15.8985 13.2437Z" fill="url(#paint7_linear)"/>
<path d="M16.086 12.9687C16.1626 12.8266 16.2407 12.5562 16.0797 12.1469C16.0501 12.0719 15.9657 12.0328 15.8891 12.0562L14.9735 12.3375C14.8344 12.3797 14.8235 12.5719 14.9563 12.6297L15.8844 13.0391C15.961 13.0703 16.0485 13.0406 16.086 12.9687Z" fill="url(#paint8_linear)"/>
<path d="M14.9844 12.25L15.8125 11.9219C15.9063 11.8844 15.9484 11.775 15.9016 11.6859C15.8125 11.5172 15.6375 11.25 15.3469 11.0219C15.2578 10.9531 15.1281 10.9828 15.0844 11.0859L14.7063 11.9625C14.6281 12.1406 14.8047 12.3219 14.9844 12.25Z" fill="url(#paint9_linear)"/>
<path d="M15.8469 6.33124C15.8469 6.33124 12.3719 5.36562 12.286 5.25937C12.2 5.15312 13.0469 3.32968 14.8375 3.97655C16.3797 4.5328 15.9469 6.25937 15.8469 6.33124Z" fill="#FCDA00"/>
<path d="M15.7828 6.27969C15.7828 6.27969 12.4391 5.38751 12.3562 5.29063C12.2734 5.19376 13.0797 3.5422 14.8031 4.13594C16.2859 4.65001 15.8781 6.21563 15.7828 6.27969Z" fill="#FFF59D"/>
<path d="M14.5343 5.575L15.4874 5.11563C15.5048 5.1071 15.5236 5.10212 15.5428 5.10097C15.5621 5.09982 15.5814 5.10252 15.5996 5.10893C15.6178 5.11533 15.6345 5.1253 15.6488 5.13826C15.6631 5.15121 15.6746 5.16689 15.6828 5.18438C15.739 5.30156 15.8062 5.48438 15.7906 5.67344C15.7781 5.82031 15.7546 5.93438 15.7343 6.01406C15.7241 6.05151 15.6994 6.08338 15.6658 6.1027C15.6321 6.12203 15.5921 6.12724 15.5546 6.11719L14.5593 5.84844C14.4281 5.8125 14.4125 5.63281 14.5343 5.575Z" fill="url(#paint10_linear)"/>
<path d="M14.5813 4.27969C14.5813 4.27969 14.8235 4.29376 15.0985 4.46407C15.261 4.56407 15.35 4.71251 15.3953 4.81719C15.425 4.88438 15.4016 4.96407 15.3391 5.00157L14.4391 5.55938C14.3235 5.63126 14.1813 5.52032 14.2203 5.39063L14.561 4.28282L14.5813 4.27969Z" fill="url(#paint11_linear)"/>
<path d="M14.3015 4.14062C14.1594 4.0875 13.9 4.04843 13.5406 4.24843C13.475 4.28593 13.4484 4.36875 13.4812 4.43593L13.8547 5.24843C13.9109 5.37187 14.0906 5.35781 14.1281 5.22812L14.3906 4.31718C14.4011 4.28195 14.3977 4.24403 14.3811 4.21121C14.3646 4.17838 14.3361 4.15313 14.3015 4.14062Z" fill="url(#paint12_linear)"/>
<path d="M13.775 5.25155L13.3687 4.52498C13.3234 4.44373 13.2156 4.41717 13.1391 4.47186C12.918 4.63146 12.7319 4.83458 12.5922 5.06873C12.5391 5.15936 12.5828 5.27655 12.6844 5.30467L13.5422 5.5453C13.7172 5.59373 13.8625 5.4078 13.775 5.25155Z" fill="url(#paint13_linear)"/>
<path d="M8.70945 7.22033C8.53602 7.1297 8.32352 7.12345 8.13602 7.1797C7.99227 7.22345 7.85633 7.3047 7.76258 7.42189C7.66883 7.53908 7.61727 7.69533 7.64227 7.84377C7.67352 8.03908 7.83133 8.20158 8.02039 8.26095C8.20789 8.32189 8.41883 8.28752 8.59383 8.19377C8.99852 7.97502 9.21883 7.48752 8.70945 7.22033ZM8.45945 7.96095C8.37039 8.00939 8.26258 8.02658 8.16727 7.99533C8.07195 7.96408 7.9907 7.88127 7.97508 7.78127C7.96258 7.7047 7.98914 7.62658 8.03758 7.56564C8.08602 7.5047 8.15477 7.46408 8.2282 7.4422C8.32508 7.41252 8.43289 7.41564 8.52195 7.46252C8.77977 7.60002 8.66727 7.84845 8.45945 7.96095Z" fill="black"/>
<path d="M13.7844 11.8281C13.611 11.7375 13.3985 11.7313 13.211 11.7875C13.0672 11.8313 12.9313 11.9125 12.8375 12.0297C12.7438 12.1469 12.6922 12.3031 12.7172 12.4516C12.7485 12.6469 12.9063 12.8094 13.0953 12.8688C13.2828 12.9297 13.4938 12.8953 13.6688 12.8016C14.0719 12.5813 14.2922 12.0938 13.7844 11.8281ZM13.5328 12.5672C13.4438 12.6156 13.336 12.6328 13.2407 12.6016C13.1453 12.5703 13.0641 12.4875 13.0485 12.3875C13.036 12.311 13.0625 12.2328 13.111 12.1719C13.1594 12.1125 13.2282 12.0703 13.3016 12.0485C13.3985 12.0188 13.5063 12.0219 13.5953 12.0688C13.8532 12.2063 13.7407 12.4563 13.5328 12.5672Z" fill="black"/>
<path d="M9.25316 3.03905C9.07972 2.94843 8.86722 2.94218 8.67972 2.99843C8.53597 3.04218 8.40003 3.12343 8.30628 3.24062C8.21253 3.3578 8.16097 3.51405 8.18597 3.66249C8.21722 3.8578 8.37503 4.0203 8.56409 4.07968C8.75159 4.14062 8.96253 4.10624 9.13753 4.01249C9.54066 3.79218 9.76097 3.30468 9.25316 3.03905ZM9.00159 3.77812C8.91253 3.82655 8.80472 3.84374 8.70941 3.81249C8.61409 3.78124 8.53284 3.69843 8.51722 3.59843C8.50472 3.52187 8.53128 3.44374 8.57972 3.3828C8.62816 3.32343 8.69691 3.28124 8.77034 3.25937C8.86566 3.23124 8.97347 3.23437 9.06253 3.28124C9.32191 3.41718 9.20941 3.66718 9.00159 3.77812Z" fill="black"/>
<path d="M14.9562 6.51563C14.9312 6.32344 14.7812 6.15782 14.5969 6.09375C14.4141 6.02969 14.2047 6.05625 14.0312 6.14375C13.625 6.34844 13.3937 6.82032 13.8875 7.09688C14.0562 7.19219 14.2641 7.20313 14.45 7.15313C14.5922 7.11407 14.7281 7.03907 14.8234 6.92657C14.9203 6.81407 14.975 6.6625 14.9562 6.51563ZM14.5609 6.77657C14.5125 6.83438 14.4422 6.87188 14.3703 6.89219C14.275 6.91875 14.1687 6.9125 14.0828 6.86407C13.8312 6.72188 13.9484 6.48125 14.1562 6.37657C14.2453 6.33125 14.3516 6.31875 14.4453 6.35157C14.5391 6.38438 14.6156 6.46875 14.6281 6.56719C14.6375 6.64219 14.6094 6.71875 14.5609 6.77657Z" fill="black"/>
<path d="M6.08127 12.2969C5.67971 11.9609 5.07502 11.9312 5.00627 12.5797C4.98283 12.8016 5.06564 13.0266 5.20314 13.2016C5.30939 13.3344 5.45002 13.4437 5.61408 13.4937C5.77658 13.5437 5.96252 13.5328 6.10783 13.4453C6.30002 13.3312 6.40627 13.0969 6.39064 12.8734C6.37658 12.6484 6.25314 12.4406 6.08127 12.2969ZM5.90471 13.1187C5.82971 13.1625 5.73596 13.1687 5.65158 13.1437C5.56877 13.1187 5.49533 13.0625 5.44221 12.9937C5.37189 12.9047 5.32971 12.7891 5.34064 12.6766C5.37502 12.3453 5.68439 12.3609 5.88908 12.5328C5.97658 12.6062 6.04064 12.7125 6.04689 12.8266C6.05783 12.9406 6.00314 13.0609 5.90471 13.1187Z" fill="black"/>
<path d="M2.77962 8.63594C2.69055 7.925 3.68118 7.14844 4.92805 7.73594C6.17493 8.32344 7.73899 9.29219 7.58899 9.80938C7.43899 10.3266 3.06712 10.9313 2.77962 8.63594Z" fill="url(#paint14_linear)"/>
<path d="M3.6781 9.21249C3.81404 9.31874 3.98123 9.39687 4.1406 9.45781C4.48279 9.59062 4.82966 9.70468 5.18123 9.80312C5.43748 9.875 6.07185 9.94843 6.44529 9.8C5.4781 9.66718 4.4906 9.65468 3.6781 9.21249Z" fill="#EE9565"/>
<path d="M3.55627 9.09531C3.59221 9.13749 3.63284 9.17656 3.67815 9.21249C4.49065 9.65312 5.47971 9.66718 6.44378 9.79999C6.46409 9.79218 6.48284 9.78281 6.50159 9.77343C5.52815 9.53749 4.43909 9.58906 3.55627 9.09531Z" fill="#BA6E4C"/>
<path d="M4.64059 8.14845C4.36403 8.09688 4.07184 8.07032 3.81715 8.17345C3.56246 8.27657 3.36246 8.54532 3.41559 8.82501C3.4359 8.9297 3.4859 9.0172 3.55465 9.09532C4.43903 9.58907 5.60622 9.38282 6.50153 9.77345C6.70934 9.6672 6.80934 9.47501 6.65309 9.14532C6.54684 8.91876 6.32184 8.77345 6.10153 8.65782C5.64283 8.41577 5.15035 8.24406 4.64059 8.14845Z" fill="#F6A67D"/>
<path d="M10.7547 2.3625C11.5437 2.19063 12.514 3.225 11.9812 4.68125C11.4484 6.1375 10.5187 7.99063 9.92185 7.875C9.32497 7.75938 8.20779 2.91719 10.7547 2.3625Z" fill="url(#paint15_linear)"/>
<path d="M10.1969 3.42813C10.0922 3.59063 10.0204 3.78751 9.96725 3.97032C9.85319 4.36719 9.75944 4.76719 9.68444 5.17188C9.62975 5.46563 9.611 6.18594 9.81569 6.58907C9.86881 5.49376 9.78444 4.38438 10.1969 3.42813Z" fill="#EE9565"/>
<path d="M10.3157 3.27969C10.2719 3.32501 10.2313 3.37344 10.1969 3.42813C9.78442 4.38438 9.8688 5.49375 9.81567 6.58907C9.82661 6.61094 9.83911 6.63125 9.85161 6.65157C10.0204 5.53751 9.85161 4.32188 10.3157 3.27969Z" fill="#BA6E4C"/>
<path d="M11.4875 4.40157C11.5172 4.08594 11.5172 3.75626 11.3766 3.48126C11.2344 3.20626 10.9141 3.00938 10.6063 3.09688C10.4922 3.12969 10.3969 3.19532 10.3172 3.27969C9.85159 4.32032 10.2016 5.60938 9.85315 6.65313C9.99221 6.87657 10.2188 6.96876 10.5735 6.75938C10.8172 6.61719 10.9578 6.35001 11.0641 6.09063C11.2891 5.55001 11.4328 4.97813 11.4875 4.40157Z" fill="#F6A67D"/>
<path d="M16.9235 7.01405C17.5407 7.36561 17.5656 8.61249 16.3594 9.25155C15.1532 9.89061 13.4547 10.5531 13.1344 10.1266C12.8125 9.69999 14.9328 5.87811 16.9235 7.01405Z" fill="url(#paint16_linear)"/>
<path d="M15.9313 7.38281C15.7672 7.42656 15.6047 7.51406 15.4625 7.60312C15.1552 7.79463 14.8574 8.00113 14.5703 8.22187C14.3625 8.38125 13.925 8.84063 13.8219 9.225C14.5016 8.53906 15.0985 7.76406 15.9313 7.38281Z" fill="#EE9565"/>
<path d="M16.0969 7.35623C16.0422 7.36092 15.986 7.36873 15.9313 7.38279C15.0985 7.76561 14.5016 8.54061 13.8203 9.22498C13.8141 9.24529 13.811 9.26717 13.8063 9.28748C14.575 8.65623 15.1797 7.76248 16.0969 7.35623Z" fill="#BA6E4C"/>
<path d="M16.2031 8.77813C16.4078 8.58907 16.6031 8.37344 16.6718 8.11094C16.7406 7.84844 16.6484 7.52969 16.3937 7.40626C16.3 7.35938 16.1984 7.34844 16.0968 7.35469C15.1796 7.76094 14.65 8.80938 13.8078 9.28594C13.7671 9.51407 13.8609 9.70626 14.2156 9.77969C14.4578 9.82969 14.7078 9.73751 14.9296 9.63282C15.3968 9.41251 15.8281 9.12344 16.2031 8.77813Z" fill="#F6A67D"/>
<path d="M13.6157 16.6765C13.3032 17.4156 11.9078 17.6125 11.0297 16.3453C10.1516 15.0781 9.1766 13.2609 9.61253 12.8437C10.0469 12.425 14.6235 14.2906 13.6157 16.6765Z" fill="url(#paint17_linear)"/>
<path d="M13.0687 15.6125C12.9969 15.4344 12.8781 15.2641 12.7594 15.1156C12.5026 14.7973 12.2309 14.4912 11.9453 14.1984C11.7375 13.9859 11.1641 13.5578 10.7188 13.4937C11.5781 14.1641 12.5281 14.7297 13.0687 15.6125Z" fill="#EE9565"/>
<path d="M13.1219 15.7953C13.1094 15.7344 13.0937 15.6734 13.0703 15.6125C12.5297 14.7297 11.5797 14.1625 10.7187 13.4922C10.6937 13.4891 10.6703 13.4859 10.6469 13.4859C11.4562 14.2625 12.5422 14.8219 13.1219 15.7953Z" fill="#BA6E4C"/>
<path d="M11.539 16.1047C11.7781 16.3094 12.0468 16.5 12.3515 16.5406C12.6562 16.5828 12.9999 16.4359 13.1046 16.1344C13.1437 16.0219 13.1437 15.9078 13.1218 15.7953C12.5421 14.8219 11.2937 14.3672 10.6468 13.4859C10.3859 13.4719 10.1812 13.6016 10.1468 14.0109C10.1234 14.2906 10.2593 14.5578 10.4077 14.7922C10.7187 15.2859 11.1015 15.7313 11.539 16.1047Z" fill="#F6A67D"/>
<path d="M7.59064 7.09688C7.57345 7.10782 7.04064 6.92969 6.77033 6.87657C6.50001 6.82188 6.12189 6.86563 6.14533 6.95313C6.16876 7.04063 6.3172 7.08751 6.3172 7.08751C6.3172 7.08751 6.12658 7.22657 6.29376 7.27501C6.46095 7.32344 7.12345 7.38594 7.12345 7.38594C7.12345 7.38594 6.61095 7.43126 6.81095 7.47188C7.00939 7.51251 7.52032 7.52501 7.62501 7.47188C7.7297 7.41719 7.6797 7.43126 7.6797 7.43126L7.59064 7.09688Z" fill="#ED0000"/>
<path d="M8.25008 6.52658C8.25008 6.52658 7.74539 6.84533 7.60945 6.96721C7.47352 7.08908 7.48602 7.45158 7.7282 7.55158C7.97039 7.65158 8.24851 7.60939 8.50789 7.47658C8.76726 7.34377 8.86101 7.02189 8.86101 7.02189L8.25008 6.52658Z" fill="#ED0000"/>
<path d="M6.77654 5.54688C6.78279 5.5625 6.78904 5.57188 6.79373 5.58438C6.79998 5.59844 6.80466 5.61094 6.80935 5.625C6.81873 5.65313 6.82654 5.68125 6.83435 5.70938C6.84841 5.76563 6.85935 5.82344 6.87029 5.87969C6.89216 5.99375 6.91091 6.10938 6.92029 6.22657L6.90466 6.20782C6.97185 6.22657 7.03747 6.25157 7.10154 6.27813C7.1656 6.30469 7.22966 6.33438 7.28747 6.375L7.27341 6.37344L7.41091 6.35157C7.42497 6.35 7.43904 6.35938 7.4406 6.37344C7.44216 6.3875 7.43279 6.40157 7.41872 6.40313L7.28122 6.425H7.27497L7.26716 6.42344C7.19685 6.40938 7.13279 6.38125 7.07029 6.35313C7.00597 6.32553 6.94382 6.29315 6.88435 6.25625L6.88123 6.25469C6.87797 6.25297 6.87516 6.25052 6.87299 6.24754C6.87082 6.24456 6.86936 6.24113 6.86872 6.2375C6.8281 6.12657 6.79529 6.01407 6.76716 5.90157C6.7531 5.84532 6.73904 5.7875 6.72966 5.72969C6.72498 5.7 6.72185 5.67188 6.71873 5.64219C6.71873 5.62813 6.71716 5.6125 6.71716 5.59688C6.71716 5.58125 6.71716 5.5625 6.72029 5.54844C6.72341 5.53438 6.73748 5.525 6.7531 5.52813C6.7656 5.53282 6.77341 5.53907 6.77654 5.54688Z" fill="#E53935"/>
<path d="M6.63594 5.61093L6.66719 6.14843L6.66406 6.12812L6.74844 6.59374L6.72969 6.57343L6.95 6.65155C6.96562 6.65624 6.97344 6.67343 6.96719 6.68905C6.9625 6.70468 6.94531 6.71249 6.92969 6.70624L6.70937 6.62812C6.7055 6.62656 6.70198 6.62423 6.69902 6.62128C6.69607 6.61833 6.69374 6.61481 6.69219 6.61093L6.69062 6.6078L6.52656 6.16405C6.525 6.1578 6.52344 6.15155 6.52344 6.1453L6.57344 5.60937C6.575 5.59374 6.58906 5.58124 6.60625 5.5828C6.62344 5.58437 6.63438 5.59687 6.63594 5.61093Z" fill="#E53935"/>
<path d="M6.44687 5.7578C6.44062 5.8078 6.43125 5.85624 6.42031 5.90468C6.40937 5.95312 6.39844 6.00155 6.38594 6.04843C6.37344 6.09687 6.35937 6.14374 6.34531 6.19062C6.3375 6.21405 6.32812 6.23749 6.31719 6.25937C6.30625 6.28124 6.29219 6.30312 6.275 6.32343V6.30937C6.30312 6.36405 6.32187 6.4203 6.3375 6.47812C6.35312 6.53593 6.36562 6.59374 6.36875 6.65624C6.36875 6.6703 6.35781 6.6828 6.34375 6.68437C6.33281 6.68437 6.32344 6.67968 6.31875 6.6703C6.29062 6.61562 6.27187 6.55937 6.25625 6.50155C6.24063 6.44374 6.22812 6.38437 6.225 6.32343V6.30937C6.22188 6.2828 6.22188 6.2578 6.225 6.2328C6.22812 6.2078 6.23281 6.18437 6.23906 6.15937C6.25312 6.11249 6.26719 6.06562 6.28437 6.01874C6.31589 5.92496 6.35293 5.83314 6.39531 5.74374C6.40156 5.73124 6.41719 5.72499 6.43125 5.73124C6.44219 5.73593 6.44844 5.74687 6.44687 5.7578Z" fill="#E53935"/>
<path d="M6.46407 5.63282C6.38751 5.72189 6.30314 5.80314 6.21564 5.88126C6.17189 5.92032 6.12814 5.95939 6.08282 5.99532C6.03595 6.03126 5.98751 6.06407 5.9297 6.08595L5.93907 6.07032C5.9297 6.17345 5.91251 6.27657 5.89064 6.37814C5.88595 6.40314 5.8797 6.4297 5.87345 6.4547L5.86407 6.4922C5.85939 6.50782 5.85939 6.50626 5.85939 6.51564C5.85626 6.53751 5.85626 6.56407 5.8547 6.58907C5.85314 6.61407 5.85157 6.63907 5.84689 6.66564C5.84532 6.68126 5.83126 6.6922 5.81564 6.69064C5.8102 6.68983 5.80511 6.68749 5.80096 6.68389C5.79681 6.68029 5.79377 6.67559 5.7922 6.67032C5.78595 6.64532 5.78126 6.61876 5.77657 6.59376C5.77345 6.5672 5.77032 6.5422 5.76876 6.51407C5.7672 6.49689 5.77501 6.47189 5.77657 6.46251L5.78439 6.42501C5.78907 6.40001 5.79532 6.37657 5.80001 6.35157C5.82345 6.25314 5.84845 6.15782 5.88439 6.06095L5.89376 6.04532C5.92501 5.9922 5.96564 5.95001 6.00782 5.90939C6.05157 5.87032 6.09689 5.83439 6.1422 5.79689C6.23282 5.72345 6.32657 5.65314 6.42814 5.5922C6.44064 5.58439 6.45939 5.58751 6.4672 5.60157C6.47345 5.60939 6.47188 5.62345 6.46407 5.63282Z" fill="#E53935"/>
<path d="M8.23905 5.53282C8.11249 5.48751 7.97343 5.64532 7.88905 5.71719C7.76562 5.82188 7.65312 5.93595 7.54843 6.05782C7.54218 6.06407 7.53593 6.06876 7.52968 6.07501C7.52499 6.0797 7.52187 6.08595 7.52187 6.09063C7.51249 6.10157 7.50155 6.11251 7.49218 6.12501C7.4703 6.15157 7.51405 6.1797 7.53437 6.1547C7.54843 6.13751 7.56405 6.12032 7.57812 6.10313C7.80155 5.92813 8.02499 5.75313 8.24687 5.57813C8.26405 5.56407 8.2578 5.53907 8.23905 5.53282Z" fill="#E53935"/>
<path d="M8.54686 5.76093C8.41248 5.66874 8.19998 5.81718 8.07811 5.87811C7.90154 5.96718 7.73436 6.0703 7.57498 6.18593C7.56561 6.19061 7.55623 6.1953 7.54842 6.19999C7.54061 6.20468 7.53592 6.20936 7.53436 6.21561C7.52029 6.22655 7.50467 6.23749 7.48904 6.24843C7.45623 6.27343 7.49842 6.3203 7.53123 6.29686C7.55311 6.27968 7.57654 6.26405 7.59842 6.24843L8.54529 5.81718C8.56561 5.80624 8.56717 5.77499 8.54686 5.76093Z" fill="#E53935"/>
<path d="M8.69532 6.02502C8.58126 5.90627 8.34064 6.0172 8.20626 6.05783C8.01251 6.11564 7.82501 6.19064 7.6422 6.27814C7.63282 6.28127 7.62188 6.28439 7.61251 6.28752C7.60313 6.29064 7.59845 6.29533 7.59376 6.30158C7.57657 6.30939 7.55938 6.3172 7.5422 6.32658C7.5047 6.34533 7.53595 6.40158 7.57345 6.38283C7.59845 6.37033 7.62501 6.35783 7.65001 6.34533C7.99376 6.25783 8.33751 6.16876 8.6797 6.08126C8.7047 6.07501 8.71251 6.0422 8.69532 6.02502Z" fill="#E53935"/>
<path d="M8.8563 6.2797C8.74849 6.13751 8.47661 6.21876 8.32817 6.24064C8.11411 6.27189 7.90317 6.32345 7.69536 6.38907L7.66255 6.39376C7.65317 6.39532 7.64692 6.40001 7.64224 6.40626C7.62349 6.41251 7.60317 6.41876 7.58442 6.42501C7.54224 6.43907 7.5688 6.5047 7.61099 6.48907C7.63911 6.4797 7.6688 6.47032 7.69849 6.46095C8.07661 6.42032 8.4563 6.37814 8.83442 6.33751C8.85942 6.33439 8.87192 6.30001 8.8563 6.2797Z" fill="#E53935"/>
<path d="M9.36875 6.46562C9.36875 6.46562 9.38281 6.73593 9.20937 6.91093C9.03437 7.08593 8.88594 7.18124 8.70937 7.09999C8.53281 7.01874 8.32969 6.86718 8.1875 6.54218L8.52344 6.19687L9.36875 6.46562Z" fill="#ED0000"/>
<path d="M9.62188 5.81094C9.62188 5.81094 9.64063 6.51719 9.45938 6.55782C9.27656 6.59688 8.47656 6.25001 8.47656 6.25001L8.61094 5.90469L9.62188 5.81094Z" fill="#ED0000"/>
<path d="M9.1906 4.91873C9.1906 4.91873 9.43279 5.11248 9.55622 5.40936C9.68122 5.70623 9.71404 5.83123 9.71404 5.83123C9.71404 5.83123 9.50154 5.96248 9.12029 6.02029C8.73904 6.07811 8.5656 6.08436 8.5656 6.08436L8.4281 5.72498L9.1906 4.91873Z" fill="#ED0000"/>
<path d="M8.51873 4.47656C8.51873 4.47656 9.05779 4.67969 9.18904 4.8125C9.31872 4.94531 9.17185 5.27656 8.9156 5.5125C8.65935 5.74844 8.55622 5.79844 8.42497 5.83437C8.29373 5.87031 8.14685 5.60156 8.14685 5.60156L8.51873 4.47656Z" fill="#ED0000"/>
<path d="M7.80474 4.49687C7.80474 4.49687 8.29536 4.34999 8.4313 4.42656C8.56724 4.50312 8.64693 4.79843 8.5188 5.24374C8.40005 5.65937 8.34224 5.70781 8.1688 5.68906C7.96255 5.66562 7.66099 5.64843 7.53911 5.47499C7.4188 5.30156 7.80474 4.49687 7.80474 4.49687Z" fill="#ED0000"/>
<path d="M7.80469 4.49686C7.80469 4.49686 7.92969 4.9328 7.78281 5.25624C7.63594 5.57968 7.30469 5.71874 6.20625 5.8203C5.06719 5.92499 4.70313 5.77186 4.70313 5.77186L4.8 5.61093L4.42969 5.63124L4.60781 5.44843L4.375 5.43124L5.33125 4.98905L4.8625 4.96874C4.8625 4.96874 5.92031 4.6703 6.54531 4.57811C7.17031 4.48593 7.45625 4.47655 7.80469 4.49686Z" fill="#ED0000"/>
<path d="M5.57495 5.16092C5.65262 5.16092 5.71558 5.09796 5.71558 5.02029C5.71558 4.94263 5.65262 4.87967 5.57495 4.87967C5.49729 4.87967 5.43433 4.94263 5.43433 5.02029C5.43433 5.09796 5.49729 5.16092 5.57495 5.16092Z" fill="black"/>
<path d="M12.6625 11.0391C12.6594 11.0578 12.2188 11.2969 12.0203 11.4406C11.8203 11.5844 11.6188 11.8578 11.6906 11.8953C11.7625 11.9328 11.8828 11.8656 11.8828 11.8656C11.8828 11.8656 11.8578 12.075 11.9922 11.9953C12.1266 11.9156 12.5688 11.5188 12.5688 11.5188C12.5688 11.5188 12.2875 11.8813 12.4344 11.775C12.5813 11.6688 12.9016 11.3438 12.9297 11.2422C12.9578 11.1406 12.936 11.1812 12.936 11.1812L12.6625 11.0391Z" fill="#ED0000"/>
<path d="M12.6907 10.2625C12.6907 10.2625 12.5922 10.7859 12.5891 10.9484C12.5876 11.1109 12.8313 11.3234 13.0438 11.2266C13.2563 11.1297 13.3985 10.9219 13.4688 10.6719C13.5391 10.4219 13.386 10.1641 13.386 10.1641L12.6907 10.2625Z" fill="#ED0000"/>
<path d="M11.1547 10.6297C11.1687 10.6344 11.1781 10.6375 11.1906 10.6422C11.2031 10.6469 11.2141 10.6515 11.2266 10.6562C11.25 10.6672 11.2734 10.6781 11.2969 10.6906C11.3422 10.7156 11.3859 10.7437 11.4312 10.7703C11.5187 10.825 11.6062 10.8828 11.6891 10.9484L11.6687 10.9469C11.7219 10.914 11.7781 10.8859 11.8344 10.8609C11.8906 10.8344 11.9484 10.8109 12.0109 10.7984L12.0016 10.8062L12.0703 10.7031C12.0781 10.6922 12.0922 10.689 12.1031 10.6969C12.1141 10.7047 12.1172 10.7187 12.1094 10.7297L12.0406 10.8328C12.0391 10.8344 12.0391 10.8359 12.0375 10.8359L12.0312 10.8406C11.9797 10.8765 11.9219 10.9031 11.8656 10.9265C11.8078 10.95 11.75 10.9719 11.6891 10.989H11.6859C11.6797 10.9906 11.6734 10.9906 11.6672 10.9875C11.5703 10.9469 11.4766 10.9 11.3859 10.8484C11.3406 10.8219 11.2953 10.7969 11.2516 10.7687C11.218 10.7474 11.1866 10.7228 11.1578 10.6953C11.1469 10.6859 11.1359 10.675 11.1281 10.664C11.1203 10.6531 11.1234 10.6375 11.1344 10.6297C11.1391 10.6281 11.1469 10.6265 11.1547 10.6297Z" fill="#E53935"/>
<path d="M11.1109 10.7609L11.4812 11.0672L11.4672 11.0562L11.8234 11.2844H11.7984L11.9828 11.1875C11.9891 11.1846 11.9962 11.1841 12.0028 11.1861C12.0095 11.1881 12.0151 11.1925 12.0187 11.1984C12.025 11.2109 12.0203 11.2266 12.0078 11.2344L11.8234 11.3312C11.8164 11.334 11.8088 11.3346 11.8015 11.3328L11.7984 11.3312L11.4093 11.1688C11.4039 11.167 11.399 11.1637 11.3953 11.1594L11.075 10.8C11.0656 10.7891 11.0656 10.7719 11.0765 10.7625C11.0859 10.7516 11.1 10.7516 11.1109 10.7609Z" fill="#E53935"/>
<path d="M11.0921 10.9734C11.1202 11.0078 11.1468 11.0438 11.1718 11.0797C11.1968 11.1156 11.2218 11.1531 11.2452 11.1891C11.2687 11.2266 11.2905 11.2641 11.314 11.3016C11.3249 11.3203 11.3343 11.3406 11.3421 11.3625C11.3499 11.3828 11.3562 11.4047 11.3577 11.4297L11.3484 11.4203C11.4015 11.4359 11.4499 11.4578 11.4968 11.4828C11.5437 11.5078 11.5905 11.5344 11.6327 11.5703C11.6421 11.5781 11.6437 11.5938 11.6359 11.6031C11.6296 11.611 11.6202 11.6125 11.6109 11.6109C11.5577 11.5969 11.5093 11.5735 11.4624 11.5485C11.4155 11.5235 11.3687 11.4953 11.3265 11.4609L11.3171 11.4516C11.2968 11.4375 11.2812 11.4219 11.2671 11.4047C11.253 11.3875 11.2405 11.3703 11.228 11.3516C11.2062 11.3141 11.1843 11.275 11.164 11.2359C11.1437 11.1969 11.1234 11.1578 11.1046 11.1188C11.0859 11.0797 11.0687 11.0391 11.0515 10.9969C11.0468 10.9844 11.053 10.9719 11.0655 10.9672C11.0749 10.9625 11.0859 10.9656 11.0921 10.9734Z" fill="#E53935"/>
<path d="M11.0203 10.8859C11.0313 10.9906 11.0344 11.0953 11.0328 11.2C11.0313 11.2516 11.0313 11.3047 11.0266 11.3563C11.0219 11.4078 11.0141 11.4594 10.9938 11.5109L10.9891 11.4953C11.0516 11.5641 11.1078 11.6375 11.161 11.7141C11.175 11.7328 11.1875 11.7516 11.2 11.7719L11.2188 11.8016C11.2266 11.8141 11.225 11.8125 11.2313 11.8188C11.2438 11.8344 11.261 11.85 11.2766 11.8672C11.2922 11.8844 11.3078 11.9 11.3219 11.9188C11.3313 11.9297 11.3297 11.9453 11.3188 11.9547C11.311 11.9609 11.3 11.9625 11.2906 11.9578C11.2703 11.9469 11.25 11.9344 11.2313 11.9219C11.2125 11.9078 11.1938 11.8953 11.175 11.8781C11.1641 11.8688 11.1516 11.8484 11.1453 11.8422L11.125 11.8156C11.1125 11.7969 11.1 11.7781 11.0875 11.7609C11.0375 11.6859 10.9906 11.6109 10.9485 11.5297L10.9438 11.5141C10.9281 11.4609 10.925 11.4094 10.9235 11.3563C10.9235 11.3047 10.9281 11.2516 10.9313 11.2C10.9391 11.0953 10.95 10.9922 10.9703 10.8891C10.9735 10.875 10.986 10.8672 11 10.8688C11.011 10.8672 11.0188 10.875 11.0203 10.8859Z" fill="#E53935"/>
<path d="M12.0344 9.66405C11.9282 9.71874 11.9469 9.90624 11.9422 10.0062C11.936 10.15 11.9422 10.2937 11.9578 10.4359V10.4578C11.9578 10.4641 11.9594 10.4687 11.9625 10.4734L11.9672 10.5125C11.9719 10.5422 12.0172 10.5312 12.0125 10.5031C12.0094 10.4828 12.0078 10.4625 12.0047 10.4437C12.0266 10.1906 12.0469 9.93905 12.0688 9.68593C12.0703 9.66718 12.05 9.65624 12.0344 9.66405Z" fill="#E53935"/>
<path d="M12.3719 9.60157C12.2297 9.63439 12.1984 9.86251 12.1641 9.9797C12.1156 10.1484 12.0813 10.3219 12.0594 10.4969C12.0563 10.5063 12.0547 10.5141 12.0516 10.5234C12.05 10.5313 12.05 10.5375 12.0531 10.5422C12.0516 10.5578 12.0484 10.575 12.0469 10.5906C12.0438 10.6266 12.1 10.6281 12.1031 10.5922L12.1125 10.5188C12.2109 10.225 12.3078 9.93126 12.4063 9.63751C12.4125 9.6172 12.3922 9.59688 12.3719 9.60157Z" fill="#E53935"/>
<path d="M12.6344 9.66406C12.4875 9.66563 12.4141 9.89219 12.3578 10.0031C12.2781 10.1641 12.2125 10.3328 12.1594 10.5063C12.1547 10.5141 12.1516 10.5234 12.1469 10.5313C12.1438 10.5391 12.1438 10.5453 12.1453 10.5516C12.1406 10.5672 12.1344 10.5844 12.1297 10.6C12.1188 10.6359 12.175 10.65 12.1859 10.6141C12.1938 10.5891 12.2 10.5656 12.2078 10.5406C12.3594 10.2625 12.5109 9.98438 12.6609 9.70625C12.6719 9.68906 12.6547 9.66406 12.6344 9.66406Z" fill="#E53935"/>
<path d="M12.8985 9.71406C12.7391 9.69843 12.6266 9.92499 12.5516 10.0359C12.4422 10.1953 12.3469 10.3641 12.2641 10.5391C12.2579 10.5469 12.2532 10.5562 12.2469 10.5641C12.2422 10.5719 12.2407 10.5781 12.2422 10.5844C12.2344 10.6 12.2266 10.6172 12.2188 10.6328C12.2016 10.6703 12.261 10.6922 12.2766 10.6547C12.2875 10.6297 12.3 10.6047 12.311 10.5812C12.5141 10.3078 12.7172 10.0359 12.9204 9.76249C12.936 9.74531 12.9204 9.71718 12.8985 9.71406Z" fill="#E53935"/>
<path d="M13.3312 9.49374C13.3312 9.49374 13.5171 9.64843 13.5249 9.86874C13.5343 10.0891 13.5046 10.2437 13.3452 10.3109C13.1859 10.3781 12.9624 10.4172 12.664 10.3125L12.6437 9.88281L13.3312 9.49374Z" fill="#ED0000"/>
<path d="M13.0563 8.92969C13.0563 8.92969 13.5297 9.34688 13.4454 9.49063C13.361 9.63281 12.6469 9.94531 12.6469 9.94531L12.5032 9.64688L13.0563 8.92969Z" fill="#ED0000"/>
<path d="M12.2109 8.66875C12.2109 8.66875 12.4844 8.62812 12.7547 8.72812C13.025 8.82812 13.1266 8.88125 13.1266 8.88125C13.1266 8.88125 13.0828 9.1 12.8891 9.38437C12.6953 9.66875 12.5938 9.78594 12.5938 9.78594L12.275 9.65781L12.2109 8.66875Z" fill="#ED0000"/>
<path d="M11.514 8.83907C11.514 8.83907 11.975 8.60939 12.1406 8.6047C12.3062 8.60001 12.4328 8.89845 12.4328 9.20939C12.4312 9.52033 12.4015 9.61876 12.3437 9.72501C12.2859 9.83126 12.0219 9.76564 12.0219 9.76564L11.514 8.83907Z" fill="#ED0000"/>
<path d="M11.0922 9.31874C11.0922 9.31874 11.2953 8.9078 11.4281 8.86717C11.5609 8.82499 11.8015 8.95155 12.0156 9.30624C12.2156 9.63749 12.2125 9.70467 12.0937 9.80467C11.9531 9.92499 11.7578 10.1125 11.5719 10.0875C11.3859 10.0625 11.0922 9.31874 11.0922 9.31874Z" fill="#ED0000"/>
<path d="M11.0922 9.31873C11.0922 9.31873 11.4547 9.50154 11.575 9.79529C11.6969 10.0875 11.5859 10.389 10.9844 11.1703C10.3609 11.9797 10.0391 12.125 10.0391 12.125L9.99219 11.964L9.77969 12.2187L9.76875 11.9906L9.61563 12.1328L9.90781 11.239L9.60938 11.5344C9.60938 11.5344 10.0578 10.6609 10.3766 10.1969C10.6953 9.73279 10.8672 9.53435 11.0922 9.31873Z" fill="#ED0000"/>
<path d="M10.0797 11.2203C10.1487 11.2203 10.2047 11.1643 10.2047 11.0953C10.2047 11.0263 10.1487 10.9703 10.0797 10.9703C10.0107 10.9703 9.95471 11.0263 9.95471 11.0953C9.95471 11.1643 10.0107 11.2203 10.0797 11.2203Z" fill="black"/>
<path d="M6.70004 14.3375C6.69379 14.3203 6.94692 13.8891 7.04535 13.6625C7.14223 13.436 7.1766 13.0984 7.09535 13.1031C7.0141 13.1078 6.94535 13.2281 6.94535 13.2281C6.94535 13.2281 6.85942 13.0359 6.78598 13.1734C6.71254 13.3109 6.53598 13.8781 6.53598 13.8781C6.53598 13.8781 6.59223 13.4219 6.52035 13.5891C6.44848 13.7563 6.34223 14.1985 6.37035 14.3C6.39848 14.4016 6.39535 14.3563 6.39535 14.3563L6.70004 14.3375Z" fill="#ED0000"/>
<path d="M7.07501 15.0188C7.07501 15.0188 6.89063 14.5188 6.80938 14.3781C6.72813 14.2375 6.40938 14.1797 6.27657 14.3735C6.14376 14.5672 6.12813 14.8172 6.19688 15.0688C6.26563 15.3203 6.52813 15.4625 6.52813 15.4625L7.07501 15.0188Z" fill="#ED0000"/>
<path d="M8.20469 13.9141C8.19062 13.9172 8.17969 13.9203 8.16875 13.9219C8.15625 13.925 8.14375 13.9266 8.12969 13.9281C8.10312 13.9313 8.07812 13.9328 8.05156 13.9344C8 13.936 7.94687 13.9344 7.89531 13.9344C7.79062 13.9328 7.6875 13.9281 7.58281 13.9141L7.60156 13.9063C7.57187 13.9625 7.53906 14.0141 7.50312 14.0656C7.46719 14.1172 7.43125 14.1672 7.38437 14.211L7.38906 14.1985L7.38281 14.3235C7.38281 14.336 7.37187 14.3453 7.35781 14.3453C7.34531 14.3453 7.33594 14.3344 7.33594 14.3203L7.34219 14.1953C7.34219 14.1938 7.34219 14.1922 7.34375 14.1906L7.34687 14.1828C7.37187 14.125 7.40781 14.0735 7.44531 14.0235C7.48281 13.9735 7.52031 13.925 7.56406 13.8781L7.56562 13.8766C7.57011 13.8718 7.57628 13.869 7.58281 13.8688C7.6875 13.8531 7.79062 13.8469 7.89531 13.8438C7.94687 13.8422 8 13.8406 8.05156 13.8422C8.09101 13.8439 8.13023 13.8491 8.16875 13.8578C8.18281 13.861 8.19844 13.8641 8.20937 13.8688C8.22187 13.8735 8.22656 13.8891 8.22187 13.9C8.22031 13.9078 8.2125 13.9125 8.20469 13.9141Z" fill="#E53935"/>
<path d="M8.17501 13.7797L7.70001 13.7078L7.7172 13.7094L7.29533 13.6969L7.31564 13.6844L7.20626 13.8625C7.19845 13.875 7.18283 13.8781 7.17033 13.8719C7.16453 13.8682 7.16034 13.8624 7.1586 13.8558C7.15686 13.8491 7.1577 13.842 7.16095 13.8359L7.27033 13.6578C7.2748 13.6515 7.28149 13.647 7.28908 13.6453H7.2922L7.71095 13.5844C7.7172 13.5828 7.72345 13.5844 7.72814 13.5859L8.18751 13.7297C8.20158 13.7344 8.20939 13.7484 8.2047 13.7625C8.20158 13.7734 8.18908 13.7813 8.17501 13.7797Z" fill="#E53935"/>
<path d="M8.08284 13.5875C8.04065 13.5734 8.00003 13.5562 7.9594 13.5375C7.91878 13.5187 7.87972 13.5 7.84065 13.4797C7.80159 13.4609 7.76253 13.4391 7.72347 13.4172C7.70472 13.4062 7.68597 13.3937 7.66878 13.3797C7.65159 13.3656 7.6344 13.35 7.62034 13.3312L7.63284 13.3344C7.57972 13.3484 7.52659 13.3547 7.47347 13.3578C7.42034 13.3609 7.36722 13.3609 7.31253 13.3516C7.30938 13.3511 7.30637 13.35 7.30368 13.3483C7.30099 13.3465 7.29869 13.3443 7.29692 13.3416C7.29516 13.339 7.29396 13.336 7.29342 13.3329C7.29288 13.3297 7.293 13.3265 7.29378 13.3234C7.29534 13.3141 7.30159 13.3062 7.31097 13.3047C7.36409 13.2891 7.41722 13.2844 7.47034 13.2812C7.52347 13.2797 7.57659 13.2781 7.63128 13.2875L7.64378 13.2906C7.66722 13.2922 7.68909 13.2984 7.71097 13.3047C7.73284 13.3125 7.75159 13.3203 7.7719 13.3312C7.8094 13.3531 7.84847 13.3734 7.88597 13.3969C7.92347 13.4187 7.96097 13.4437 7.9969 13.4672C8.0344 13.4922 8.07034 13.5172 8.10472 13.5453C8.11565 13.5531 8.11722 13.5687 8.10784 13.5781C8.10315 13.5875 8.09222 13.5906 8.08284 13.5875Z" fill="#E53935"/>
<path d="M8.1891 13.625C8.12504 13.5406 8.07035 13.4516 8.01723 13.3625C7.99223 13.3172 7.96567 13.2719 7.94223 13.225C7.92035 13.1781 7.90004 13.1297 7.89067 13.075L7.90317 13.0859C7.8141 13.0594 7.72816 13.0234 7.64379 12.9859C7.62191 12.9766 7.6016 12.9672 7.58129 12.9578L7.55004 12.9422C7.53754 12.9359 7.5391 12.9359 7.52973 12.9328C7.51098 12.9266 7.4891 12.9203 7.46723 12.9141C7.44535 12.9078 7.42348 12.9016 7.4016 12.8938C7.39527 12.8914 7.39011 12.8866 7.38719 12.8805C7.38428 12.8744 7.38385 12.8674 7.38598 12.8609C7.3891 12.8516 7.39848 12.8438 7.40941 12.8438C7.43285 12.8422 7.45629 12.8438 7.47973 12.8453C7.50316 12.8469 7.52504 12.8484 7.5516 12.8547C7.56567 12.8563 7.58754 12.8688 7.59535 12.8703L7.6266 12.8844L7.68754 12.9125C7.76879 12.95 7.84848 12.9922 7.92504 13.0406L7.93754 13.0516C7.97816 13.0891 8.00785 13.1313 8.03598 13.1766C8.06254 13.2219 8.08598 13.2688 8.10942 13.3141C8.15629 13.4078 8.20004 13.5016 8.23598 13.6016C8.24066 13.6141 8.23442 13.6297 8.22035 13.6344C8.20629 13.6375 8.19535 13.6328 8.1891 13.625Z" fill="#E53935"/>
<path d="M7.94687 15.1953C8.00937 15.0937 7.89843 14.9422 7.85155 14.8547C7.7828 14.7281 7.70312 14.6078 7.61718 14.4937C7.61405 14.4875 7.60937 14.4812 7.60624 14.4734C7.60501 14.4708 7.60327 14.4685 7.60112 14.4667C7.59897 14.4648 7.59646 14.4634 7.59374 14.4625C7.58593 14.4516 7.57812 14.4406 7.56874 14.4312C7.54999 14.4078 7.51718 14.4406 7.53437 14.4625C7.54687 14.4781 7.55937 14.4937 7.57187 14.5109C7.6828 14.7391 7.7953 14.9656 7.90624 15.1937C7.91405 15.2094 7.93749 15.2094 7.94687 15.1953Z" fill="#E53935"/>
<path d="M7.68904 15.4219C7.79373 15.3203 7.70467 15.1078 7.67342 14.9906C7.62776 14.8208 7.56926 14.6547 7.49842 14.4937C7.4953 14.4844 7.49373 14.4766 7.49061 14.4672C7.48996 14.464 7.48865 14.4609 7.48677 14.4582C7.48488 14.4555 7.48247 14.4533 7.47967 14.4516C7.47342 14.4359 7.46717 14.4219 7.45936 14.4062C7.44373 14.3734 7.39373 14.4 7.40936 14.4344C7.4203 14.4562 7.42967 14.4797 7.43905 14.5016L7.64061 15.4094C7.6453 15.4297 7.67342 15.4359 7.68904 15.4219Z" fill="#E53935"/>
<path d="M7.43129 15.5016C7.55629 15.4234 7.50472 15.1922 7.49379 15.0687C7.47972 14.8891 7.44847 14.7109 7.40629 14.5344C7.40472 14.525 7.40472 14.5156 7.40316 14.5062C7.40316 14.4984 7.39847 14.4922 7.39379 14.4875C7.3891 14.4719 7.38597 14.4547 7.38129 14.4375C7.37191 14.4016 7.31566 14.4172 7.3266 14.4531C7.33285 14.4781 7.3391 14.5031 7.34535 14.5266C7.35785 14.8422 7.37191 15.1594 7.38441 15.475C7.38597 15.5 7.41254 15.5125 7.43129 15.5016Z" fill="#E53935"/>
<path d="M7.17804 15.5953C7.32335 15.5281 7.30304 15.275 7.31085 15.1406C7.32335 14.9469 7.3171 14.7531 7.29991 14.5609C7.29991 14.5516 7.30147 14.5406 7.30147 14.5312C7.30147 14.5219 7.29835 14.5156 7.29522 14.5109L7.29054 14.4562C7.28585 14.4156 7.22491 14.4266 7.2296 14.4672C7.23272 14.4937 7.23585 14.5219 7.23741 14.5484L7.13429 15.5641C7.13116 15.5875 7.15772 15.6047 7.17804 15.5953Z" fill="#E53935"/>
<path d="M6.92031 16.0078C6.92031 16.0078 6.68125 15.9703 6.56093 15.7844C6.44062 15.5984 6.38593 15.4516 6.4875 15.3125C6.59062 15.1734 6.76093 15.025 7.07187 14.9609L7.31093 15.3188L6.92031 16.0078Z" fill="#ED0000"/>
<path d="M7.44683 16.35C7.44683 16.35 6.82652 16.2344 6.82496 16.0687C6.82339 15.9031 7.27652 15.2687 7.27652 15.2687L7.55308 15.45L7.44683 16.35Z" fill="#ED0000"/>
<path d="M8.30469 16.1391C8.30469 16.1391 8.09062 16.3141 7.80781 16.3672C7.525 16.4203 7.40937 16.4266 7.40937 16.4266C7.40937 16.4266 7.33437 16.2156 7.35469 15.8719C7.37656 15.5281 7.40156 15.3766 7.40156 15.3766L7.74062 15.3234L8.30469 16.1391Z" fill="#ED0000"/>
<path d="M8.8172 15.6344C8.8172 15.6344 8.53908 16.0688 8.40001 16.1578C8.25939 16.2469 7.99845 16.0563 7.83907 15.7891C7.6797 15.5219 7.65626 15.4219 7.65001 15.3C7.64376 15.1781 7.90626 15.1 7.90626 15.1L8.8172 15.6344Z" fill="#ED0000"/>
<path d="M8.9328 15.0078C8.9328 15.0078 8.9703 15.4641 8.87655 15.5687C8.78437 15.6719 8.51249 15.6875 8.14687 15.4937C7.80624 15.3125 7.77343 15.2531 7.82343 15.1062C7.8828 14.9312 7.95312 14.6687 8.12655 14.5953C8.30155 14.5203 8.9328 15.0078 8.9328 15.0078Z" fill="#ED0000"/>
<path d="M8.93282 15.0078C8.93282 15.0078 8.52814 15.0359 8.27345 14.8469C8.01876 14.6578 7.95939 14.3437 8.07345 13.3641C8.19376 12.35 8.39533 12.0594 8.39533 12.0594L8.5172 12.175L8.56876 11.8469L8.69533 12.0375L8.75314 11.8375L8.96095 12.7547L9.06564 12.3484C9.06564 12.3484 9.1297 13.3281 9.09376 13.8906C9.06095 14.4516 9.01407 14.7062 8.93282 15.0078Z" fill="#ED0000"/>
<path d="M8.88904 13.0875C8.95807 13.0875 9.01404 13.0315 9.01404 12.9625C9.01404 12.8935 8.95807 12.8375 8.88904 12.8375C8.82 12.8375 8.76404 12.8935 8.76404 12.9625C8.76404 13.0315 8.82 13.0875 8.88904 13.0875Z" fill="black"/>
<defs>
<radialGradient id="paint0_radial" cx="0" cy="0" r="1" gradientUnits="userSpaceOnUse" gradientTransform="translate(10.0097 10.0034) rotate(-45.001) scale(9.33594)">
<stop offset="0.596"/>
<stop offset="0.676" stop-color="#060606"/>
<stop offset="0.784" stop-color="#171717"/>
<stop offset="0.908" stop-color="#333333"/>
<stop offset="1" stop-color="#4D4D4D"/>
</radialGradient>
<radialGradient id="paint1_radial" cx="0" cy="0" r="1" gradientUnits="userSpaceOnUse" gradientTransform="translate(10.0008 9.97015) scale(8.53594)">
<stop stop-color="#EFC700"/>
<stop offset="1" stop-color="#FF8D03"/>
</radialGradient>
<linearGradient id="paint2_linear" x1="2.75801" y1="10.7053" x2="3.83332" y2="9.53941" gradientUnits="userSpaceOnUse">
<stop offset="0.005" stop-color="#FABD00"/>
<stop offset="0.244" stop-color="#FAC300"/>
<stop offset="0.567" stop-color="#FAD400"/>
<stop offset="0.935" stop-color="#FAF000"/>
<stop offset="1" stop-color="#FAF600"/>
</linearGradient>
<linearGradient id="paint3_linear" x1="3.10312" y1="11.0243" x2="4.17843" y2="9.85833" gradientUnits="userSpaceOnUse">
<stop offset="0.005" stop-color="#FABD00"/>
<stop offset="0.244" stop-color="#FAC300"/>
<stop offset="0.567" stop-color="#FAD400"/>
<stop offset="0.935" stop-color="#FAF000"/>
<stop offset="1" stop-color="#FAF600"/>
</linearGradient>
<linearGradient id="paint4_linear" x1="3.76376" y1="11.6334" x2="4.83908" y2="10.4675" gradientUnits="userSpaceOnUse">
<stop offset="0.005" stop-color="#FABD00"/>
<stop offset="0.244" stop-color="#FAC300"/>
<stop offset="0.567" stop-color="#FAD400"/>
<stop offset="0.935" stop-color="#FAF000"/>
<stop offset="1" stop-color="#FAF600"/>
</linearGradient>
<linearGradient id="paint5_linear" x1="4.02443" y1="11.8732" x2="5.09835" y2="10.7066" gradientUnits="userSpaceOnUse">
<stop offset="0.005" stop-color="#FABD00"/>
<stop offset="0.244" stop-color="#FAC300"/>
<stop offset="0.567" stop-color="#FAD400"/>
<stop offset="0.935" stop-color="#FAF000"/>
<stop offset="1" stop-color="#FAF600"/>
</linearGradient>
<linearGradient id="paint6_linear" x1="15.6343" y1="14.3505" x2="13.9039" y2="13.4164" gradientUnits="userSpaceOnUse">
<stop offset="0.005" stop-color="#FABD00"/>
<stop offset="0.244" stop-color="#FAC300"/>
<stop offset="0.567" stop-color="#FAD400"/>
<stop offset="0.935" stop-color="#FAF000"/>
<stop offset="1" stop-color="#FAF600"/>
</linearGradient>
<linearGradient id="paint7_linear" x1="15.9101" y1="13.8384" x2="14.1794" y2="12.9058" gradientUnits="userSpaceOnUse">
<stop offset="0.005" stop-color="#FABD00"/>
<stop offset="0.244" stop-color="#FAC300"/>
<stop offset="0.567" stop-color="#FAD400"/>
<stop offset="0.935" stop-color="#FAF000"/>
<stop offset="1" stop-color="#FAF600"/>
</linearGradient>
<linearGradient id="paint8_linear" x1="16.4392" y1="12.8588" x2="14.7088" y2="11.9247" gradientUnits="userSpaceOnUse">
<stop offset="0.005" stop-color="#FABD00"/>
<stop offset="0.244" stop-color="#FAC300"/>
<stop offset="0.567" stop-color="#FAD400"/>
<stop offset="0.935" stop-color="#FAF000"/>
<stop offset="1" stop-color="#FAF600"/>
</linearGradient>
<linearGradient id="paint9_linear" x1="16.6469" y1="12.4742" x2="14.9165" y2="11.5401" gradientUnits="userSpaceOnUse">
<stop offset="0.005" stop-color="#FABD00"/>
<stop offset="0.244" stop-color="#FAC300"/>
<stop offset="0.567" stop-color="#FAD400"/>
<stop offset="0.935" stop-color="#FAF000"/>
<stop offset="1" stop-color="#FAF600"/>
</linearGradient>
<linearGradient id="paint10_linear" x1="15.6423" y1="4.38616" x2="14.9936" y2="6.10475" gradientUnits="userSpaceOnUse">
<stop offset="0.005" stop-color="#FABD00"/>
<stop offset="0.244" stop-color="#FAC300"/>
<stop offset="0.567" stop-color="#FAD400"/>
<stop offset="0.935" stop-color="#FAF000"/>
<stop offset="1" stop-color="#FAF600"/>
</linearGradient>
<linearGradient id="paint11_linear" x1="15.1346" y1="4.1944" x2="14.4859" y2="5.913" gradientUnits="userSpaceOnUse">
<stop offset="0.005" stop-color="#FABD00"/>
<stop offset="0.244" stop-color="#FAC300"/>
<stop offset="0.567" stop-color="#FAD400"/>
<stop offset="0.935" stop-color="#FAF000"/>
<stop offset="1" stop-color="#FAF600"/>
</linearGradient>
<linearGradient id="paint12_linear" x1="14.16" y1="3.8268" x2="13.5113" y2="5.5454" gradientUnits="userSpaceOnUse">
<stop offset="0.005" stop-color="#FABD00"/>
<stop offset="0.244" stop-color="#FAC300"/>
<stop offset="0.567" stop-color="#FAD400"/>
<stop offset="0.935" stop-color="#FAF000"/>
<stop offset="1" stop-color="#FAF600"/>
</linearGradient>
<linearGradient id="paint13_linear" x1="13.7784" y1="3.68232" x2="13.1297" y2="5.40092" gradientUnits="userSpaceOnUse">
<stop offset="0.005" stop-color="#FABD00"/>
<stop offset="0.244" stop-color="#FAC300"/>
<stop offset="0.567" stop-color="#FAD400"/>
<stop offset="0.935" stop-color="#FAF000"/>
<stop offset="1" stop-color="#FAF600"/>
</linearGradient>
<linearGradient id="paint14_linear" x1="2.82991" y1="8.33391" x2="7.41859" y2="9.85718" gradientUnits="userSpaceOnUse">
<stop offset="0.404"/>
<stop offset="0.493" stop-color="#0F0F0F"/>
<stop offset="0.691" stop-color="#2A2A2A"/>
<stop offset="0.866" stop-color="#3A3A3A"/>
<stop offset="1" stop-color="#404040"/>
</linearGradient>
<linearGradient id="paint15_linear" x1="11.0987" y1="2.39074" x2="9.85201" y2="7.69236" gradientUnits="userSpaceOnUse">
<stop offset="0.404"/>
<stop offset="0.493" stop-color="#0F0F0F"/>
<stop offset="0.691" stop-color="#2A2A2A"/>
<stop offset="0.866" stop-color="#3A3A3A"/>
<stop offset="1" stop-color="#404040"/>
</linearGradient>
<linearGradient id="paint16_linear" x1="17.1339" y1="7.23387" x2="13.1976" y2="9.96472" gradientUnits="userSpaceOnUse">
<stop offset="0.404"/>
<stop offset="0.493" stop-color="#0F0F0F"/>
<stop offset="0.691" stop-color="#2A2A2A"/>
<stop offset="0.866" stop-color="#3A3A3A"/>
<stop offset="1" stop-color="#404040"/>
</linearGradient>
<linearGradient id="paint17_linear" x1="13.396" y1="16.9379" x2="9.80147" y2="12.889" gradientUnits="userSpaceOnUse">
<stop offset="0.404"/>
<stop offset="0.493" stop-color="#0F0F0F"/>
<stop offset="0.691" stop-color="#2A2A2A"/>
<stop offset="0.866" stop-color="#3A3A3A"/>
<stop offset="1" stop-color="#404040"/>
</linearGradient>
</defs>
</svg>
