<svg width="20" height="20" viewBox="0 0 20 20" fill="none" xmlns="http://www.w3.org/2000/svg">
<path d="M14.975 6.41564L13.5359 6.5672L14.1641 3.49845C14.2205 3.22194 14.3508 2.9659 14.5412 2.75761C14.7316 2.54932 14.975 2.39657 15.2453 2.31564L18.1344 1.44689C18.7078 1.27502 19.2859 1.70314 19.2859 2.30314C19.2859 2.8672 18.725 3.26095 18.1953 3.06877L17.7938 2.97814L16.175 3.45783C16.0176 3.50468 15.8752 3.59193 15.762 3.7109C15.6488 3.82987 15.5687 3.97642 15.5297 4.13595L14.975 6.41564Z" fill="#65878D"/>
<path d="M13.4828 12.9297L12.4813 17.1875L11.2641 16.7578L12.0141 12.9297H13.4828Z" fill="#65878D"/>
<path d="M12.775 15.9375H2.94373V17.2391H12.5531L12.775 15.9375Z" fill="#65878D"/>
<path d="M0.304696 7.51249L1.46251 13.1562C1.55157 13.5937 1.93595 13.9062 2.38126 13.9062H13.0875C13.1582 13.9063 13.2268 13.8824 13.2822 13.8384C13.3375 13.7944 13.3763 13.7329 13.3922 13.664L15.2703 5.53749C15.3188 5.32967 15.15 5.13749 14.9375 5.15624L1.13907 6.39061C1.00758 6.40232 0.880041 6.4417 0.76483 6.50616C0.649619 6.57061 0.549334 6.65869 0.47055 6.76462C0.391766 6.87055 0.336263 6.99194 0.30768 7.12083C0.279097 7.24971 0.27808 7.38318 0.304696 7.51249ZM2.48438 7.6828L3.15001 7.62342C3.21488 7.61759 3.28026 7.62533 3.34197 7.64615C3.40369 7.66698 3.46039 7.70044 3.50846 7.74439C3.55653 7.78834 3.59491 7.84183 3.62117 7.90144C3.64742 7.96105 3.66097 8.02548 3.66095 8.09061V8.84374C3.66095 9.10311 3.45157 9.31249 3.1922 9.31249H2.4922C2.27032 9.31249 2.07813 9.15624 2.03282 8.93749L1.9297 8.43124C1.91147 8.34508 1.91174 8.25603 1.9305 8.16999C1.94926 8.08395 1.98608 8.00287 2.03851 7.93212C2.09095 7.86137 2.15781 7.80256 2.23467 7.75958C2.31154 7.7166 2.39665 7.69043 2.48438 7.6828ZM8.4547 10.5609H9.3422C9.60157 10.5609 9.81095 10.7703 9.81095 11.0297V12.0312C9.81095 12.2906 9.60157 12.5 9.3422 12.5H8.4547C8.19532 12.5 7.98595 12.2906 7.98595 12.0312V11.0297C7.98595 10.7703 8.19532 10.5609 8.4547 10.5609ZM9.3422 9.31092H8.4547C8.19532 9.31092 7.98595 9.10155 7.98595 8.84217V7.61874C7.98595 7.37655 8.17188 7.17342 8.41251 7.15155L9.30001 7.07186C9.36488 7.06602 9.43026 7.07376 9.49198 7.09459C9.55369 7.11542 9.61039 7.14887 9.65846 7.19283C9.70653 7.23678 9.74492 7.29027 9.77117 7.34988C9.79742 7.40949 9.81097 7.47391 9.81095 7.53905V8.84217C9.81095 9.10155 9.60157 9.31092 9.3422 9.31092ZM6.73595 11.0297V12.0312C6.73595 12.2906 6.52657 12.5 6.2672 12.5H5.3797C5.12032 12.5 4.91095 12.2906 4.91095 12.0312V11.0297C4.91095 10.7703 5.12032 10.5609 5.3797 10.5609H6.2672C6.52657 10.5609 6.73595 10.7703 6.73595 11.0297ZM6.2672 9.31092H5.3797C5.12032 9.31092 4.91095 9.10155 4.91095 8.84217V7.89374C4.91095 7.65155 5.09688 7.44842 5.33751 7.42655L6.22501 7.34686C6.28988 7.34102 6.35526 7.34876 6.41698 7.36959C6.47869 7.39042 6.53539 7.42388 6.58346 7.46783C6.63153 7.51178 6.66991 7.56527 6.69617 7.62488C6.72242 7.68449 6.73597 7.74891 6.73595 7.81405V8.84217C6.73595 9.10155 6.52657 9.31092 6.2672 9.31092ZM13.4141 7.3203L13.0375 8.94686C13.0137 9.04997 12.9556 9.14196 12.8727 9.20779C12.7898 9.27363 12.6871 9.30943 12.5813 9.30936H11.5297C11.2703 9.30936 11.0609 9.09999 11.0609 8.84061V7.34374C11.0609 7.10155 11.2469 6.89842 11.4875 6.87655L12.9141 6.74842C13.2328 6.7203 13.4859 7.01092 13.4141 7.3203ZM11.7203 12.5H11.375C11.2031 12.5 11.0625 12.3594 11.0625 12.1875V11.0297C11.0625 10.7703 11.2719 10.5609 11.5313 10.5609H12.0766C12.3781 10.5609 12.6016 10.8422 12.5328 11.1359L12.3297 12.0172C12.2973 12.1545 12.2195 12.2769 12.109 12.3645C11.9984 12.4521 11.8614 12.4999 11.7203 12.5ZM2.46095 11.025C2.41095 10.7844 2.59532 10.5594 2.84063 10.5594H3.1922C3.45157 10.5594 3.66095 10.7687 3.66095 11.0281V12.1109C3.66095 12.1618 3.65092 12.2122 3.63145 12.2592C3.61198 12.3062 3.58343 12.3489 3.54745 12.3849C3.51147 12.4209 3.46875 12.4495 3.42174 12.4689C3.37472 12.4884 3.32433 12.4984 3.27345 12.4984C2.97657 12.4984 2.72032 12.289 2.66095 11.9984L2.46095 11.025Z" fill="#FAC136"/>
<path d="M11.8031 18.3328C12.7523 18.3328 13.5219 17.5633 13.5219 16.614C13.5219 15.6648 12.7523 14.8953 11.8031 14.8953C10.8539 14.8953 10.0844 15.6648 10.0844 16.614C10.0844 17.5633 10.8539 18.3328 11.8031 18.3328Z" fill="#2F2F2F"/>
<path d="M11.8031 17.4156C12.2458 17.4156 12.6047 17.0568 12.6047 16.6141C12.6047 16.1714 12.2458 15.8125 11.8031 15.8125C11.3604 15.8125 11.0015 16.1714 11.0015 16.6141C11.0015 17.0568 11.3604 17.4156 11.8031 17.4156Z" fill="#65878D"/>
<path d="M3.54688 18.3328C4.49611 18.3328 5.26563 17.5633 5.26563 16.614C5.26563 15.6648 4.49611 14.8953 3.54688 14.8953C2.59764 14.8953 1.82812 15.6648 1.82812 16.614C1.82812 17.5633 2.59764 18.3328 3.54688 18.3328Z" fill="#2F2F2F"/>
<path d="M3.54686 17.4156C3.98955 17.4156 4.34842 17.0568 4.34842 16.6141C4.34842 16.1714 3.98955 15.8125 3.54686 15.8125C3.10417 15.8125 2.7453 16.1714 2.7453 16.6141C2.7453 17.0568 3.10417 17.4156 3.54686 17.4156Z" fill="#65878D"/>
<path d="M18.5297 3.69688C19.1691 3.69688 19.6875 3.17851 19.6875 2.53907C19.6875 1.89963 19.1691 1.38126 18.5297 1.38126C17.8903 1.38126 17.3719 1.89963 17.3719 2.53907C17.3719 3.17851 17.8903 3.69688 18.5297 3.69688Z" fill="#65878D"/>
</svg>
