<svg width="20" height="20" viewBox="0 0 20 20" fill="none" xmlns="http://www.w3.org/2000/svg">
<path d="M7.24276 19.3422C0.441097 18.3406 0.555541 11.5106 0.555541 9.44446H19.4444C19.4444 10.5078 19.4928 18.2056 12.1528 19.3989C11.0183 19.5833 8.56499 19.5372 7.24276 19.3422Z" fill="#292F33"/>
<path d="M18.5489 7.35945C19.9194 4.26278 13.9206 4.44056 12.4183 4.925C11.6156 4.83129 10.8082 4.78417 10 4.78389C4.78389 4.78389 0.555556 6.57723 0.555556 9.475C0.555556 10.0356 0.717222 10.5744 1.01 11.0811C-1.39389 14.2544 3.36889 14.8511 6.11222 14.2533C7.29889 14.5517 8.61222 14.7222 10 14.7222C15.2161 14.7222 19.4444 12.3728 19.4444 9.47556C19.4444 8.68111 19.1172 7.97334 18.5489 7.35945Z" fill="#66757F"/>
<path d="M9.99996 13.8889C14.6023 13.8889 18.3333 12.1478 18.3333 10C18.3333 7.85223 14.6023 6.11111 9.99996 6.11111C5.39759 6.11111 1.66663 7.85223 1.66663 10C1.66663 12.1478 5.39759 13.8889 9.99996 13.8889Z" fill="#FFCC4D"/>
<path d="M2.22218 8.88889C1.92107 7.68389 3.33329 5.55556 6.11107 6.11111C6.66662 5.55556 7.68774 5 9.4444 5C10.5555 5 12.5622 5.98611 11.6666 7.77778C11.1111 8.88889 8.88885 10.5556 6.11107 9.44445C5.55551 10 2.77773 11.1111 2.22218 8.88889Z" fill="#77B255"/>
<path d="M6.66671 9.44444C6.52837 9.46444 6.40504 9.485 6.29004 9.50611C8.98337 10.4761 11.1234 8.86444 11.6667 7.77778C12.2656 6.58 11.5662 5.74445 10.705 5.32056C10.9239 6.33278 10.0784 8.95722 6.66671 9.44444Z" fill="#5C913B"/>
<path d="M2.77774 8.8889C3.06941 8.15945 5.55552 7.22223 8.3333 10.5556C8.88886 11.1111 10.8811 11.4367 11.6666 12.2222C12.2222 12.7778 11.6666 13.3333 9.44441 13.3333C7.22219 13.3333 1.66663 11.6667 2.77774 8.8889Z" fill="#D99E82"/>
<path d="M3.35608 11.1211C4.77163 12.5339 7.90608 13.3333 9.44441 13.3333C11.6666 13.3333 12.2222 12.7778 11.6666 12.2222C11.4855 12.0411 11.2389 11.885 10.9622 11.7444C9.18219 12.7072 4.4733 11.6644 3.35608 11.1211Z" fill="#B27962"/>
<path d="M15.0001 10.5561C14.8839 10.5561 14.7651 10.5372 14.6484 10.4983L12.9817 9.94279C12.7021 9.8496 12.471 9.64916 12.3392 9.38556C12.2074 9.12197 12.1858 8.81682 12.2789 8.53724C12.3721 8.25765 12.5726 8.02654 12.8362 7.89475C13.0998 7.76295 13.4049 7.74126 13.6845 7.83446L15.3512 8.39001C15.6021 8.47294 15.8153 8.6426 15.9524 8.86854C16.0895 9.09449 16.1416 9.36191 16.0993 9.6228C16.0571 9.88369 15.9232 10.121 15.7217 10.292C15.5202 10.4631 15.2644 10.5567 15.0001 10.5561ZM14.4445 12.2222H13.3334C13.186 12.2222 13.0447 12.1637 12.9406 12.0595C12.8364 11.9553 12.7778 11.814 12.7778 11.6667C12.7778 11.5193 12.8364 11.378 12.9406 11.2738C13.0447 11.1697 13.186 11.1111 13.3334 11.1111H14.4445C14.5918 11.1111 14.7332 11.1697 14.8373 11.2738C14.9415 11.378 15.0001 11.5193 15.0001 11.6667C15.0001 11.814 14.9415 11.9553 14.8373 12.0595C14.7332 12.1637 14.5918 12.2222 14.4445 12.2222Z" fill="#FFE8B6"/>
</svg>
