<svg width="24" height="24" viewBox="0 0 24 24" fill="none" xmlns="http://www.w3.org/2000/svg">
<path d="M12.0019 22.4587C6.78378 22.4587 1.16815 19.1906 1.16815 12.0187C1.16815 4.84686 6.78378 1.57874 12.0019 1.57874C14.8932 1.57874 17.5707 2.53686 19.5413 4.27499C21.6975 6.17811 22.8357 8.85561 22.8357 12.0187C22.8357 15.1687 21.6957 17.8406 19.5394 19.7494C17.565 21.4969 14.8875 22.4587 12.0019 22.4587Z" fill="url(#paint0_linear)"/>
<path d="M12.0019 1.95374C14.8013 1.95374 17.3907 2.87811 19.2919 4.55623C21.3638 6.38623 22.4607 8.96624 22.4607 12.0206C22.4607 15.06 21.3657 17.6362 19.2919 19.47C17.385 21.1575 14.7975 22.0856 12.0019 22.0856C9.19315 22.0856 6.60378 21.1687 4.71003 19.5037C2.63815 17.6812 1.54315 15.0937 1.54315 12.0187C1.54315 8.93061 2.63815 6.33748 4.71003 4.52061C6.59815 2.86499 9.18753 1.95374 12.0019 1.95374ZM12.0019 1.20374C6.1819 1.20374 0.793152 4.94061 0.793152 12.0187C0.793152 19.0575 6.1819 22.8337 12.0019 22.8337C17.8219 22.8337 23.2107 18.9619 23.2107 12.0187C23.2107 5.03623 17.8219 1.20374 12.0019 1.20374Z" fill="#EB8F00"/>
<path d="M21.5456 21.4032L21.1106 21.8382C19.8488 23.1 17.8013 23.1 16.5375 21.8382L11.3869 16.6894L16.3969 11.6813L21.5456 16.83C22.8075 18.0938 22.8075 20.1413 21.5456 21.4032Z" fill="#E04C74"/>
<g opacity="0.3">
<path opacity="0.3" d="M16.3969 12.7425L21.015 17.3606C21.4838 17.8294 21.7425 18.4538 21.7425 19.1175C21.7425 19.7813 21.4838 20.4038 21.015 20.8744L20.58 21.3094C20.1113 21.7781 19.4869 22.0369 18.8231 22.0369C18.1594 22.0369 17.5369 21.7781 17.0663 21.3094L12.4482 16.6894L16.3969 12.7425ZM16.3969 11.6813L11.3869 16.6894L16.5357 21.8381C17.1675 22.47 17.9944 22.785 18.8213 22.785C19.6481 22.785 20.4769 22.47 21.1069 21.8381L21.5419 21.4031C22.8038 20.1413 22.8038 18.0938 21.5419 16.83L16.3969 11.6813Z" fill="#AB3F2E"/>
</g>
<path opacity="0.3" d="M13.8919 14.1863L18.4257 18.72" stroke="#AB3F2E" stroke-width="4.218" stroke-miterlimit="10" stroke-linecap="round"/>
<path d="M4.70998 13.2169C4.70998 13.2169 4.74373 13.2863 4.80748 13.4138C4.87123 13.5375 4.96311 13.7456 5.09061 13.9481C5.15623 14.0531 5.21623 14.1731 5.30061 14.2988C5.38686 14.4244 5.48061 14.5613 5.57998 14.7056C5.68873 14.8425 5.80498 14.9906 5.92873 15.1444C6.06186 15.2906 6.19873 15.4463 6.34498 15.6038C6.65436 15.9038 6.99748 16.2244 7.40436 16.5038C7.80186 16.7963 8.25936 17.0475 8.74311 17.2763C9.22686 17.5088 9.76123 17.67 10.3069 17.7994L10.7231 17.8781C10.8619 17.9081 11.0044 17.9119 11.145 17.9306C11.2856 17.9475 11.4281 17.9644 11.5706 17.9644L11.9775 17.9794L12.4369 17.9644C12.5119 17.9606 12.5944 17.9625 12.6619 17.9531L12.8662 17.9288C13.0031 17.91 13.1362 17.9063 13.2769 17.8763L13.6931 17.7975C14.2387 17.6681 14.7731 17.5069 15.2569 17.2744C15.7406 17.0456 16.1981 16.7944 16.5956 16.5019C17.0044 16.2225 17.3456 15.9019 17.655 15.6019C17.8031 15.4444 17.94 15.2888 18.0712 15.1425C18.1931 14.9888 18.3112 14.8406 18.42 14.7038C18.5194 14.5575 18.6131 14.4225 18.6994 14.2969C18.7837 14.1694 18.8494 14.0456 18.915 13.9369C19.0481 13.7213 19.1269 13.5375 19.1906 13.4156C19.2525 13.2938 19.2844 13.2281 19.2844 13.2281L19.2994 13.1981C19.4025 12.9919 19.6556 12.9075 19.8619 13.0106C20.0587 13.11 20.145 13.3444 20.0625 13.545C20.0625 13.545 20.0325 13.62 19.9744 13.7588C19.9125 13.8956 19.8431 14.1094 19.7062 14.3569C19.6406 14.4806 19.575 14.625 19.4869 14.7713C19.3987 14.9175 19.3012 15.075 19.2 15.2419C19.0856 15.4031 18.9637 15.5738 18.8344 15.7538C18.6956 15.9263 18.5437 16.1044 18.3825 16.2863C18.045 16.6369 17.6681 17.01 17.2181 17.3419C16.7775 17.6869 16.2694 17.9963 15.7162 18.2569C15.165 18.5269 14.5594 18.72 13.935 18.8738C13.7775 18.9056 13.6181 18.9375 13.4606 18.9675C13.3031 19.0013 13.1306 19.0125 12.9656 19.035L12.7144 19.0631C12.63 19.0744 12.5587 19.0725 12.4819 19.0763L12.0225 19.0969L11.5106 19.0763C11.3475 19.0744 11.1862 19.0538 11.0231 19.0331C10.8619 19.0106 10.6987 19.0013 10.5412 18.9675C10.3819 18.9356 10.2244 18.9038 10.0669 18.8738C9.44248 18.72 8.83686 18.5269 8.28561 18.2569C7.73248 17.9963 7.22436 17.6869 6.78373 17.3419C6.33186 17.01 5.95498 16.6369 5.61936 16.2863C5.45811 16.1025 5.30811 15.9263 5.16748 15.7538C5.03811 15.5738 4.91623 15.4031 4.80186 15.2419C4.69873 15.0731 4.60311 14.9156 4.51498 14.7713C4.42686 14.625 4.35936 14.475 4.29186 14.3475C4.14936 14.0869 4.08936 13.8975 4.02936 13.7625C3.97498 13.6294 3.94498 13.5581 3.94498 13.5581C3.85686 13.3444 3.95811 13.0988 4.17373 13.0088C4.37811 12.9319 4.61248 13.0219 4.70998 13.2169Z" fill="#242424"/>
<path d="M9.29251 8.96062C9.29251 8.96062 9.28313 8.9475 9.26251 8.92312L9.18376 8.82187C9.15563 8.79187 9.12188 8.75625 9.08251 8.715C9.04313 8.67 8.99438 8.62312 8.94563 8.57437C8.89501 8.5275 8.84251 8.47875 8.78813 8.43937C8.73563 8.39625 8.67751 8.36437 8.63063 8.33812C8.58188 8.30812 8.53688 8.30062 8.50876 8.29125C8.49376 8.28562 8.48063 8.28562 8.46938 8.28375C8.46376 8.28562 8.45813 8.28187 8.45251 8.28375L8.44501 8.28562H8.43938C8.46188 8.28562 8.38876 8.2875 8.49001 8.28375L8.38688 8.2875C8.36063 8.2875 8.37751 8.28937 8.37938 8.28937C8.38501 8.28937 8.38876 8.28937 8.39251 8.2875C8.40751 8.28187 8.39251 8.2875 8.38876 8.2875C8.38155 8.28782 8.37451 8.28974 8.36813 8.29312C8.33813 8.3025 8.29313 8.31 8.24626 8.34C8.19938 8.36625 8.14126 8.39812 8.08876 8.44125C8.03626 8.4825 7.98188 8.52937 7.93126 8.57625C7.83376 8.67187 7.74751 8.7675 7.68751 8.83687C7.62563 8.90812 7.59188 8.94937 7.59188 8.94937L7.54876 9C7.29188 9.3 6.81938 9.35062 6.49501 9.11437C6.27376 8.95312 6.17813 8.70187 6.21938 8.46187C6.21938 8.46187 6.23251 8.385 6.27001 8.25187C6.30938 8.11875 6.37501 7.92937 6.50438 7.70625C6.63376 7.485 6.82126 7.22437 7.13813 6.98625C7.29376 6.87 7.48313 6.75375 7.70813 6.675C7.76251 6.65437 7.82063 6.63562 7.88063 6.62062C7.94251 6.60562 7.99126 6.58875 8.07563 6.5775L8.19188 6.56062C8.22751 6.55687 8.28001 6.55124 8.28751 6.55124L8.39063 6.54375L8.44876 6.54187H8.46563L8.49001 6.54375L8.53876 6.54562L8.63438 6.55124C8.69813 6.55687 8.76001 6.56812 8.82188 6.5775C8.94376 6.6 9.06563 6.63187 9.17626 6.67312C9.38138 6.7464 9.57372 6.85143 9.74626 6.98437C10.0631 7.2225 10.2506 7.48312 10.38 7.70437C10.4456 7.815 10.4944 7.92 10.53 8.01187C10.5694 8.1 10.5975 8.19375 10.62 8.26312C10.6406 8.33062 10.6406 8.36625 10.65 8.39812C10.6556 8.42812 10.6575 8.445 10.6575 8.445C10.7269 8.82375 10.4475 9.18187 10.0369 9.24375C9.73876 9.28875 9.45563 9.17062 9.29251 8.96062Z" fill="#242424"/>
<path d="M16.3237 8.96062C16.3237 8.96062 16.3144 8.9475 16.2937 8.92312L16.215 8.82187C16.1869 8.79187 16.1531 8.75625 16.1137 8.715C16.0744 8.67 16.0256 8.62312 15.9769 8.57437C15.9262 8.5275 15.8737 8.47875 15.8194 8.43937C15.7669 8.39625 15.7087 8.36437 15.6619 8.33812C15.6131 8.30812 15.5681 8.30062 15.54 8.29125C15.525 8.28562 15.5119 8.28562 15.5006 8.28375C15.495 8.28562 15.4894 8.28187 15.4837 8.28375L15.4762 8.28562H15.4687C15.4912 8.28562 15.4181 8.2875 15.5194 8.28375L15.4162 8.2875C15.39 8.2875 15.4069 8.28937 15.4087 8.28937C15.4144 8.28937 15.4181 8.28937 15.4219 8.2875C15.4369 8.28187 15.4219 8.2875 15.4181 8.2875C15.4109 8.28782 15.4039 8.28974 15.3975 8.29312C15.3675 8.3025 15.3225 8.31 15.2756 8.34C15.2287 8.36625 15.1706 8.39812 15.1181 8.44125C15.0656 8.4825 15.0112 8.52937 14.9606 8.57625C14.8631 8.67187 14.7769 8.7675 14.7169 8.83687C14.655 8.90812 14.6212 8.94937 14.6212 8.94937L14.5781 9C14.3212 9.3 13.8487 9.35062 13.5244 9.11437C13.3031 8.95312 13.2075 8.70187 13.2487 8.46187C13.2487 8.46187 13.2619 8.385 13.2994 8.25187C13.3387 8.11875 13.4044 7.92937 13.5337 7.70625C13.6631 7.485 13.8506 7.22437 14.1675 6.98625C14.3231 6.87 14.5125 6.75375 14.7375 6.675C14.7919 6.65437 14.85 6.63562 14.91 6.62062C14.9719 6.60562 15.0206 6.58875 15.105 6.5775L15.2212 6.56062C15.2569 6.55687 15.3094 6.55124 15.3169 6.55124L15.42 6.54375L15.4781 6.54187H15.495L15.5194 6.54375L15.5681 6.54562L15.6637 6.55124C15.7275 6.55687 15.7894 6.56812 15.8512 6.5775C15.9731 6.6 16.095 6.63187 16.2056 6.67312C16.4107 6.7464 16.6031 6.85143 16.7756 6.98437C17.0925 7.2225 17.28 7.48312 17.4094 7.70437C17.475 7.815 17.5237 7.92 17.5594 8.01187C17.5987 8.1 17.6269 8.19375 17.6494 8.26312C17.67 8.33062 17.67 8.36625 17.6794 8.39812C17.685 8.42812 17.6869 8.445 17.6869 8.445C17.7562 8.82375 17.4769 9.18187 17.0662 9.24375C16.7681 9.28875 16.485 9.17062 16.3237 8.96062Z" fill="#242424"/>
<defs>
<linearGradient id="paint0_linear" x1="12.0019" y1="3.74699" x2="12.0019" y2="20.1806" gradientUnits="userSpaceOnUse">
<stop offset="0.5" stop-color="#FEE133"/>
<stop offset="0.612" stop-color="#FEDE32"/>
<stop offset="0.708" stop-color="#FCD32F"/>
<stop offset="0.797" stop-color="#FAC12B"/>
<stop offset="0.883" stop-color="#F7A924"/>
<stop offset="0.9" stop-color="#F6A323"/>
</linearGradient>
</defs>
</svg>
